<?xml version="1.0" standalone="no"?>
<!DOCTYPE svg PUBLIC "-//W3C//DTD SVG 20010904//EN"
 "http://www.w3.org/TR/2001/REC-SVG-20010904/DTD/svg10.dtd">
<svg version="1.0" xmlns="http://www.w3.org/2000/svg"
 width="2000.000000pt" height="600.000000pt" viewBox="0 0 2000.000000 600.000000"
 preserveAspectRatio="xMidYMid meet">

<g transform="translate(0.000000,600.000000) scale(0.100000,-0.100000)"
fill="#000000" stroke="none">
<path d="M0 3000 l0 -3000 7590 0 7590 0 1481 2223 c815 1222 1485 2226 1490
2231 8 9 45 -23 207 -174 23 -22 48 -40 54 -40 6 0 -1 9 -16 21 -28 22 -34 44
-14 52 8 3 6 6 -4 6 -18 1 -48 37 -48 58 0 7 8 13 18 14 13 0 12 2 -6 9 -12 5
-26 20 -31 32 -7 20 -5 24 18 29 l26 7 -26 1 c-24 1 -39 17 -39 42 0 4 15 6
33 4 l32 -5 -32 10 c-31 10 -50 27 -40 36 10 10 88 -29 83 -41 -3 -8 2 -16 11
-19 9 -4 13 -14 10 -26 -3 -11 0 -18 6 -17 6 1 13 -8 15 -21 2 -16 -3 -25 -20
-32 -19 -8 -20 -9 -3 -8 11 2 26 -1 33 -5 16 -11 16 -54 0 -60 -8 -3 -6 -6 5
-6 17 -1 37 -37 37 -66 0 -7 -8 -16 -17 -18 -14 -4 -13 -5 4 -6 13 -1 29 -13
39 -31 10 -16 24 -32 32 -35 8 -3 5 6 -7 21 -30 38 -26 49 19 69 47 21 58 15
66 -36 5 -31 3 -36 -28 -52 -18 -10 -24 -15 -13 -11 43 14 58 10 69 -23 22
-64 47 -65 100 -2 17 20 27 26 30 17 3 -7 12 -39 21 -70 8 -32 19 -58 23 -58
5 0 26 36 47 80 21 44 42 80 47 80 8 0 22 -49 37 -134 6 -33 13 -61 15 -63 2
-2 9 27 16 64 13 72 81 287 106 335 8 15 22 28 32 28 13 0 14 2 3 9 -21 13 -4
31 32 32 30 2 31 2 5 6 -44 7 -29 36 22 46 25 4 25 4 -2 6 -29 1 -37 14 -17
27 6 4 32 13 58 20 41 12 42 13 9 8 -30 -4 -38 -2 -38 10 0 11 24 23 75 38 86
25 95 36 11 15 -58 -16 -86 -6 -42 14 14 7 22 17 19 25 -4 10 33 33 128 78 74
34 160 73 191 86 32 13 56 26 53 28 -2 2 -71 -26 -152 -63 -163 -73 -189 -83
-180 -68 9 15 184 118 322 190 66 34 117 63 112 63 -12 0 -214 -104 -297 -153
-41 -25 -77 -43 -79 -42 -8 8 16 28 127 107 156 112 199 138 387 235 88 45
157 83 152 83 -13 0 -250 -121 -343 -176 -50 -30 -128 -81 -174 -114 -46 -32
-86 -57 -89 -54 -12 12 201 190 349 292 146 100 153 113 10 19 -89 -59 -228
-166 -287 -221 -24 -21 -43 -33 -43 -26 0 7 60 72 133 145 137 137 294 268
391 326 30 19 56 38 56 42 0 12 -144 -87 -248 -171 -127 -102 -254 -230 -404
-407 -135 -160 -168 -191 -271 -255 -64 -40 -239 -110 -276 -110 -12 0 -38 34
-82 106 -35 58 -100 153 -144 211 -44 58 -84 111 -89 117 -6 8 107 186 343
539 l351 527 -9590 0 -9590 0 0 -3000z m18638 1710 c82 -124 129 -206 122
-214 -3 -2 -26 -7 -51 -11 l-47 -7 -63 119 c-34 65 -84 153 -111 196 -53 87
-53 88 -35 118 11 20 14 18 60 -33 27 -29 83 -105 125 -168z m-12598 135 c69
-8 166 -24 215 -35 50 -11 101 -23 115 -26 146 -31 449 -174 599 -282 323
-230 557 -529 701 -890 119 -302 171 -721 125 -1010 -101 -630 -485 -1162
-1049 -1452 -64 -33 -124 -60 -135 -60 -10 0 -73 -18 -139 -40 -219 -73 -390
-100 -646 -100 -183 0 -208 8 -34 11 l116 2 29 51 c159 271 217 357 293 435
44 46 80 87 80 91 0 4 7 13 15 20 14 11 14 10 5 -14 -5 -15 -9 -51 -8 -79 1
-43 2 -46 5 -15 4 32 9 39 31 44 15 3 33 8 41 10 16 5 31 -13 31 -38 0 -13 -8
-18 -27 -19 -16 0 -37 -5 -48 -10 -14 -6 -5 -7 27 -3 46 6 47 5 63 -27 14 -31
15 -31 10 -6 -7 36 0 35 13 -2 9 -27 8 -29 -12 -27 -13 2 -28 6 -34 10 -6 3
-31 10 -55 15 l-45 8 -5 -39 c-7 -49 -21 -66 -75 -89 -67 -29 -132 -78 -132
-99 0 -27 -22 -77 -27 -62 -3 6 -10 9 -16 5 -6 -4 -8 0 -4 10 9 24 0 21 -14
-4 -8 -15 -8 -19 0 -15 23 14 9 -6 -44 -69 -30 -36 -55 -70 -55 -76 0 -6 20
15 44 48 46 60 86 102 86 88 0 -4 -20 -36 -46 -71 -25 -35 -41 -64 -37 -64 11
1 110 150 119 180 9 30 18 38 117 96 75 44 107 80 107 120 0 11 5 14 16 10 9
-3 19 -6 24 -6 4 0 -5 -46 -20 -103 -49 -183 -59 -237 -46 -237 8 0 22 37 35
93 12 50 33 124 47 164 l26 72 35 -17 c33 -15 35 -19 29 -52 -9 -52 -23 -139
-30 -185 -3 -22 6 6 20 62 15 56 30 100 34 98 4 -2 5 7 2 22 -4 19 -1 24 9 19
8 -3 21 -9 29 -12 14 -5 13 -16 -7 -97 -25 -101 -24 -130 1 -42 9 30 20 54 24
51 4 -2 7 9 8 25 1 36 6 41 28 33 14 -5 16 -14 12 -43 -15 -87 -15 -93 5 -39
l20 56 42 -19 c43 -19 77 -25 77 -11 -1 4 -37 24 -81 44 -71 34 -101 59 -86
74 5 5 121 -16 180 -33 11 -3 17 -14 17 -34 0 -16 5 -29 10 -29 6 0 10 11 10
24 0 14 5 28 10 31 6 3 10 -4 10 -17 0 -19 2 -20 14 -8 8 8 17 26 20 40 3 14
9 47 14 75 6 27 15 51 21 53 14 5 15 52 1 52 -5 0 -2 16 7 35 9 19 20 32 24
29 4 -2 12 4 18 13 6 10 11 12 11 6 0 -29 20 -11 20 18 0 26 -2 29 -14 20 -10
-8 -16 -9 -21 -1 -3 6 -10 8 -14 5 -9 -5 -21 41 -21 84 -1 24 -1 25 -12 6 -7
-11 -11 -35 -10 -52 2 -18 -2 -33 -7 -33 -6 0 -11 -28 -13 -62 -3 -61 -4 -63
-31 -66 -24 -3 -28 -7 -25 -30 2 -20 8 -26 22 -24 17 3 18 -1 13 -35 -4 -21
-7 -49 -7 -61 0 -23 -2 -24 -62 -19 -51 3 -185 31 -194 40 -1 1 -5 14 -9 29
l-7 27 59 -14 c32 -8 67 -14 78 -14 l20 0 -20 9 c-11 4 -45 13 -76 20 -50 10
-57 14 -62 38 -3 15 -4 28 -3 29 1 1 31 -5 66 -13 36 -8 74 -13 85 -12 11 2
-19 12 -67 22 -73 15 -88 22 -88 37 0 23 0 23 80 -1 69 -21 88 -24 76 -13 -4
4 -39 16 -79 28 l-72 20 -3 92 c-1 52 1 93 6 93 5 0 40 -11 77 -25 37 -14 70
-23 73 -21 5 6 -7 11 -96 42 l-54 19 5 38 c3 21 7 40 9 43 3 2 42 -10 89 -26
46 -16 99 -30 117 -30 29 0 32 -3 34 -32 l1 -33 4 33 c3 24 9 32 24 32 14 0
19 -7 19 -30 0 -35 17 -40 25 -7 3 12 6 63 8 114 l2 92 70 -47 c118 -78 225
-134 225 -118 0 2 -10 11 -22 22 -12 10 -18 13 -13 5 5 -9 3 -12 -6 -9 -8 3
-14 10 -14 15 0 6 -4 15 -9 20 -5 5 -6 3 -2 -4 11 -19 -2 -16 -53 13 -71 42
-169 115 -176 133 -3 9 9 2 27 -15 26 -26 99 -74 183 -122 6 -3 4 1 -3 10 -10
13 -10 17 0 22 7 3 3 4 -9 2 -12 -2 -30 2 -40 9 -16 12 -15 14 17 23 19 6 26
10 15 10 -11 1 -29 -3 -40 -7 -30 -12 -51 7 -28 25 16 13 14 13 -10 2 -41 -17
-59 5 -21 26 16 8 24 15 19 16 -6 0 -20 -7 -32 -15 -18 -13 -22 -12 -39 6 -18
21 -18 21 5 40 13 10 19 19 13 19 -5 0 -15 -7 -22 -15 -7 -8 -16 -15 -21 -15
-15 0 -10 22 9 44 17 21 17 21 -5 2 l-23 -19 0 56 c0 50 -2 55 -20 50 -15 -4
-20 0 -21 13 -1 17 -2 17 -6 1 -6 -21 1 -22 -82 9 -63 23 -69 28 -62 47 11 30
38 33 72 8 15 -12 31 -21 36 -21 4 0 -8 11 -27 25 -19 14 -41 25 -50 25 -24 0
-19 92 15 270 21 114 27 182 30 320 2 137 1 155 -5 85 -24 -283 -50 -481 -65
-506 -4 -5 -13 -9 -21 -9 -8 0 -14 -4 -14 -9 0 -21 -74 -79 -96 -76 -23 2 -53
-22 -98 -79 l-23 -30 -16 87 c-9 48 -23 97 -32 110 -16 24 -89 69 -135 82 -14
4 -55 22 -92 41 -38 19 -68 32 -68 29 0 -3 -18 4 -39 15 -25 12 -42 16 -46 10
-3 -6 -14 -10 -23 -10 -32 0 41 39 85 46 44 6 83 37 63 49 -25 15 -79 -8 -143
-60 -37 -31 -67 -50 -67 -44 0 13 -68 75 -104 96 -32 19 -63 16 -69 -6 -5 -21
16 -31 66 -31 33 0 67 -16 67 -31 0 -6 -4 -7 -10 -4 -12 8 -51 -13 -68 -37 -7
-10 -19 -18 -25 -18 -7 0 -3 7 7 15 32 24 7 17 -27 -7 -18 -13 -68 -41 -112
-63 -73 -36 -81 -44 -94 -82 -12 -33 -13 -58 -5 -122 5 -45 6 -81 2 -81 -5 0
-8 6 -8 13 0 7 -14 26 -30 42 -23 22 -39 29 -62 26 -25 -2 -37 5 -69 40 -22
24 -39 48 -39 53 0 5 -3 6 -7 2 -4 -4 -20 17 -35 46 -15 29 -27 47 -28 40 0
-24 52 -137 102 -217 99 -158 122 -186 187 -238 119 -94 231 -195 220 -199
-15 -5 68 -106 94 -114 12 -4 25 -12 29 -18 4 -6 30 -10 58 -9 37 1 50 -3 50
-13 0 -8 6 -14 13 -14 7 0 18 -10 26 -22 17 -27 22 -110 7 -120 -20 -13 0 -17
25 -4 13 7 39 11 57 10 18 -1 35 2 38 7 3 5 15 14 27 20 15 9 9 -3 -19 -37
-23 -27 -47 -60 -54 -74 -7 -14 -37 -62 -67 -107 -29 -45 -53 -85 -53 -88 0
-4 -9 -18 -20 -32 -14 -19 -20 -21 -20 -10 0 11 -6 14 -15 11 -8 -4 -22 -1
-30 6 -9 7 -18 10 -22 6 -3 -3 0 -6 8 -6 11 0 12 -2 1 -9 -21 -13 -104 -1
-127 18 -40 34 -70 42 -123 36 -66 -7 -78 4 -103 88 -10 34 -28 89 -40 122
-26 72 -36 232 -21 345 9 75 6 113 -8 91 -3 -7 -7 3 -7 21 -2 44 -9 97 -14
102 -3 3 -18 -40 -34 -95 -27 -91 -38 -113 -47 -90 -1 5 -9 3 -16 -5 -11 -12
-9 -14 8 -14 11 0 20 -7 20 -15 0 -8 -4 -15 -10 -15 -5 0 -10 6 -10 13 0 8 -4
7 -10 -3 -5 -8 -10 -22 -10 -30 0 -13 1 -13 10 0 12 20 23 6 15 -19 -7 -23
-25 -29 -25 -8 0 8 -4 7 -10 -3 -5 -8 -10 -22 -10 -30 0 -13 1 -13 10 0 11 18
23 8 14 -14 -3 -9 -14 -16 -23 -16 -11 0 -13 -3 -4 -8 16 -10 -5 -72 -24 -72
-7 0 -13 -4 -13 -10 0 -5 7 -7 15 -4 12 5 12 0 5 -28 -6 -18 -10 -40 -9 -48 1
-8 6 5 13 30 7 25 15 44 19 44 54 -11 52 -4 30 -107 -6 -31 -40 -50 -78 -43
-15 3 -26 -1 -29 -11 -4 -11 -2 -13 9 -9 8 3 15 0 16 -7 0 -9 2 -9 6 1 2 6 17
12 33 12 24 0 27 -3 23 -21 -5 -17 -12 -20 -39 -17 -19 2 -34 0 -34 -5 0 -5
-6 -7 -14 -4 -14 6 -32 -21 -21 -31 3 -3 5 0 5 5 0 12 77 29 86 20 3 -3 1 -15
-6 -26 -13 -26 -50 -28 -51 -3 -1 16 -2 16 -6 0 -4 -16 -13 -21 -33 -20 -3 0
-11 -6 -18 -14 -15 -16 -4 -18 18 -4 11 7 17 5 22 -8 6 -16 7 -16 7 0 1 14 10
18 44 17 82 -1 107 -23 82 -72 -4 -6 3 -2 14 11 l20 23 61 -73 c33 -40 74
-101 90 -135 17 -34 36 -64 43 -66 18 -8 -30 -8 -91 0 -29 3 -49 9 -43 13 6 3
-19 31 -59 64 -39 31 -70 62 -70 67 0 6 7 23 15 39 9 17 13 30 11 30 -10 0
-36 -59 -36 -79 0 -12 12 -27 28 -36 36 -20 97 -73 91 -80 -5 -5 -49 3 -139
24 -70 17 -71 18 -64 75 7 52 22 75 36 53 5 -8 8 -7 8 4 0 22 -24 31 -55 19
-14 -5 -25 -7 -25 -3 0 3 -8 -1 -17 -9 -34 -29 -114 -67 -129 -61 -17 6 -13
22 22 100 13 29 26 64 30 79 4 14 16 29 28 34 21 9 21 9 1 9 -17 1 -28 -17
-60 -91 -21 -51 -42 -97 -46 -102 -4 -5 -20 -5 -35 -2 -26 7 -26 9 -21 59 4
35 3 47 -3 37 -5 -8 -10 -30 -10 -48 0 -30 -2 -33 -22 -26 -13 4 -33 13 -44
21 l-22 14 19 86 c10 48 19 92 18 97 -1 23 -17 -32 -29 -101 -13 -74 -16 -78
-44 -67 -13 5 -15 17 -11 63 5 58 1 54 -10 -12 -5 -33 -8 -36 -25 -27 -15 8
-20 22 -21 53 l-2 42 -7 -40 -6 -40 -13 30 c-8 17 -16 60 -20 97 -7 70 -21
104 -21 51 0 -17 5 -54 10 -83 6 -29 8 -55 6 -58 -17 -16 -270 194 -377 314
-92 102 -190 234 -174 234 3 0 0 10 -6 23 -15 27 -20 2093 -5 2142 17 58 24
71 72 135 75 101 228 253 336 336 412 316 919 459 1418 399z m12432 -43 c52
-82 158 -286 158 -305 0 -12 -9 -17 -29 -17 -63 0 -74 11 -135 146 -86 192
-82 178 -63 208 10 14 21 26 25 26 4 0 24 -26 44 -58z m-48 -104 c54 -117 81
-187 73 -194 -8 -8 -78 15 -98 33 -9 7 -29 51 -44 97 l-29 83 23 36 c12 21 25
37 27 37 3 0 25 -42 48 -92z m-73 -85 c10 -31 17 -58 15 -61 -7 -6 -106 50
-106 60 0 5 12 27 27 49 30 46 32 45 64 -48z m-8277 -11 c52 -23 102 -69 98
-89 -2 -7 -9 -28 -17 -46 l-14 -35 -66 24 c-141 51 -275 19 -275 -65 0 -26 15
-33 132 -65 124 -32 163 -52 220 -114 75 -80 76 -170 1 -253 -51 -56 -107 -74
-233 -73 -121 0 -186 20 -263 80 l-46 36 20 46 c11 26 22 48 23 49 2 2 34 -11
71 -29 87 -40 200 -50 255 -21 37 19 64 61 54 86 -3 9 -51 27 -122 47 -135 37
-141 40 -205 93 -66 54 -80 86 -75 162 5 75 36 123 101 157 68 34 87 38 192
34 76 -2 112 -8 149 -24z m-1372 -12 c19 -20 60 -101 120 -238 49 -114 93
-210 97 -215 4 -4 55 102 113 235 l105 243 67 3 c64 3 67 2 61 -18 -5 -17 -2
-20 20 -20 15 0 25 -4 23 -10 -1 -5 -68 -161 -148 -345 l-145 -335 -67 0 c-57
0 -68 3 -73 19 -3 11 -13 21 -21 23 -13 2 -127 253 -299 656 l-14 32 65 0 c59
0 68 -3 96 -30z m788 10 c0 -13 7 -20 20 -20 20 0 20 -7 20 -345 l0 -345 -65
0 c-58 0 -65 2 -65 20 0 15 -7 20 -25 20 l-25 0 0 345 0 345 70 0 c63 0 70 -2
70 -20z m930 0 c0 -13 7 -20 20 -20 19 0 20 -7 20 -120 l0 -120 155 0 155 0 0
140 0 140 70 0 c63 0 70 -2 70 -20 0 -13 7 -20 20 -20 20 0 20 -7 20 -345 l0
-345 -65 0 c-58 0 -65 2 -65 20 0 15 -7 20 -25 20 l-25 0 0 125 0 125 -155 0
-155 0 0 -145 0 -145 -65 0 c-58 0 -65 2 -65 20 0 13 -7 20 -20 20 -20 0 -20
7 -20 345 l0 345 65 0 c58 0 65 -2 65 -20z m1017 1 c3 -11 12 -21 22 -24 10
-2 68 -120 165 -333 81 -181 150 -335 153 -341 4 -10 -12 -13 -61 -13 -52 0
-68 4 -73 16 -3 9 -15 19 -26 23 -11 4 -29 31 -42 62 l-23 54 -159 3 -158 2
-34 -80 -33 -80 -65 0 c-60 0 -64 1 -58 20 5 17 2 20 -25 20 -22 0 -30 4 -27
13 12 30 287 639 297 657 9 17 21 20 76 20 56 0 67 -3 71 -19z m523 -1 c0 -13
7 -20 20 -20 20 0 20 -7 20 -270 l0 -270 160 0 c153 0 160 -1 160 -20 0 -13 7
-20 20 -20 18 0 20 -7 20 -55 l0 -55 -245 0 c-238 0 -245 1 -245 20 0 15 -7
20 -25 20 l-25 0 0 345 0 345 70 0 c63 0 70 -2 70 -20z m860 0 c0 -13 7 -20
20 -20 19 0 20 -7 20 -132 l0 -133 146 153 146 152 75 0 c75 0 76 0 58 -20
-18 -20 -17 -20 20 -20 l38 0 -54 -60 c-30 -32 -94 -102 -143 -155 l-88 -95
151 -188 151 -187 -70 -3 c-87 -4 -98 4 -230 163 l-95 114 -52 -52 -53 -51 0
-88 0 -88 -65 0 c-58 0 -65 2 -65 20 0 15 -7 20 -25 20 l-25 0 0 345 0 345 70
0 c63 0 70 -2 70 -20z m710 0 c0 -13 7 -20 19 -20 18 0 19 -12 23 -232 4 -302
7 -308 132 -308 49 0 71 5 97 23 64 43 69 64 69 325 l0 232 70 0 c63 0 70 -2
70 -20 0 -14 7 -20 21 -20 20 0 21 -3 17 -242 -3 -230 -4 -246 -27 -295 -51
-115 -156 -171 -301 -160 -41 3 -91 12 -111 21 -61 26 -147 103 -177 159 l-27
52 -3 253 -3 252 65 0 c59 0 66 -2 66 -20z m772 0 c7 -11 17 -20 23 -20 5 0
62 -88 125 -195 63 -107 117 -195 120 -195 3 0 62 96 130 213 l125 212 58 3
c52 3 57 1 57 -18 0 -13 7 -20 20 -20 20 0 20 -7 20 -345 l0 -345 -60 0 c-53
0 -60 2 -60 20 0 15 -7 20 -25 20 l-25 0 -2 162 -3 162 -85 -142 c-79 -133
-87 -142 -115 -142 -19 0 -35 7 -43 20 -7 11 -18 20 -25 20 -6 1 -50 64 -97
142 l-85 142 -3 -202 -2 -202 -60 0 c-53 0 -60 2 -60 20 0 15 -7 20 -25 20
l-25 0 0 345 0 345 55 0 c44 0 57 -4 67 -20z m1173 1 c3 -11 13 -21 21 -23 12
-2 205 -412 309 -655 l14 -33 -70 0 c-62 0 -71 2 -76 20 -3 11 -13 20 -22 20
-10 0 -26 22 -43 60 l-26 60 -155 0 -156 0 -32 -80 -33 -80 -69 0 c-63 0 -68
2 -62 19 5 16 0 20 -23 23 l-29 3 133 295 c73 162 143 316 154 343 l21 47 69
0 c59 0 70 -3 75 -19z m792 4 c65 -19 153 -93 188 -157 24 -44 27 -58 24 -127
-3 -66 -8 -84 -33 -120 -16 -23 -47 -52 -68 -65 l-38 -22 75 -107 c41 -58 75
-109 75 -112 0 -3 -31 -5 -70 -5 -59 0 -71 3 -80 20 -6 11 -16 20 -23 20 -7 0
-36 36 -66 80 l-55 80 -78 0 -78 0 0 -100 0 -100 -70 0 c-63 0 -70 2 -70 20 0
13 -7 20 -20 20 -20 0 -20 7 -20 345 l0 345 178 0 c130 0 192 -4 229 -15z
m2903 5 c0 -5 -4 -10 -10 -10 -5 0 -10 5 -10 10 0 6 5 10 10 10 6 0 10 -4 10
-10z m-20 -29 c0 -5 -7 -14 -15 -21 -12 -10 -15 -10 -15 2 0 8 3 18 7 21 9 10
23 9 23 -2z m-890 -27 c0 -18 -14 -18 -29 0 -9 11 -9 15 1 19 17 6 28 -1 28
-19z m838 4 c-6 -18 -28 -21 -28 -4 0 9 7 16 16 16 9 0 14 -5 12 -12z m-66
-20 c-7 -7 -12 -8 -12 -2 0 14 12 26 19 19 2 -3 -1 -11 -7 -17z m-774 -14 c26
-18 29 -44 5 -44 -13 0 -11 -4 7 -13 33 -16 40 -57 10 -57 -22 0 -70 41 -70
60 0 5 8 10 18 11 13 0 12 3 -5 11 -27 13 -31 48 -5 48 10 0 28 -7 40 -16z
m866 1 c-4 -8 -10 -15 -15 -15 -5 0 -9 -8 -9 -19 0 -10 -7 -24 -15 -31 -8 -7
-15 -19 -15 -26 0 -8 -8 -14 -17 -14 -14 0 -15 -2 -5 -9 10 -6 6 -25 -18 -87
-18 -43 -42 -119 -55 -168 -14 -49 -26 -91 -29 -93 -3 -3 -9 13 -15 36 -35
134 -37 113 19 211 28 50 56 90 61 90 5 0 9 9 9 19 0 11 9 22 19 26 12 3 18
12 15 20 -3 7 4 18 15 25 11 6 20 14 20 18 -4 22 3 32 21 32 13 0 18 -5 14
-15z m-54 -5 c0 -12 -28 -25 -36 -17 -9 9 6 27 22 27 8 0 14 -5 14 -10z m-70
-10 c0 -6 -7 -13 -15 -16 -8 -4 -15 -10 -15 -14 0 -17 -55 -70 -73 -70 -24 0
-17 22 11 35 12 5 22 15 22 22 0 7 7 13 15 13 8 0 19 9 25 20 11 21 30 27 30
10z m-55 -10 c-3 -5 -10 -10 -16 -10 -5 0 -9 5 -9 10 0 6 7 10 16 10 8 0 12
-4 9 -10z m-751 -25 c3 -9 0 -15 -9 -15 -8 0 -15 7 -15 15 0 8 4 15 9 15 5 0
11 -7 15 -15z m314 1 c3 -4 0 -11 -8 -16 -12 -8 -10 -10 7 -10 29 0 20 -27
-10 -33 -15 -3 -11 -5 11 -6 39 -1 54 -27 27 -47 -18 -13 -18 -14 2 -14 14 0
24 -10 32 -31 10 -30 10 -31 -35 -51 -51 -22 -60 -18 -70 30 -5 23 -3 32 7 33
8 0 4 4 -8 9 -29 12 -33 59 -5 61 11 1 8 4 -8 8 -30 8 -40 41 -13 42 15 0 14
2 -4 9 -41 17 -27 33 22 27 26 -2 49 -8 53 -11z m392 -14 c-7 -3 -20 -13 -28
-23 -18 -21 -56 -26 -50 -6 3 6 14 13 26 15 12 2 22 9 22 17 0 16 33 25 39 11
2 -6 -2 -12 -9 -14z m140 18 c0 -5 -6 -13 -12 -17 -7 -4 -18 -17 -24 -28 -12
-21 -54 -34 -54 -16 0 5 8 16 18 23 10 7 21 21 25 31 7 18 47 24 47 7z m-270
-10 c0 -5 -4 -10 -10 -10 -5 0 -10 5 -10 10 0 6 5 10 10 10 6 0 10 -4 10 -10z
m70 1 c0 -5 -7 -11 -15 -15 -9 -3 -15 0 -15 9 0 8 7 15 15 15 8 0 15 -4 15 -9z
m-253 -25 c-4 -11 3 -13 34 -9 45 6 51 -7 17 -33 -20 -14 -20 -16 -3 -9 35 12
39 10 43 -12 2 -16 -7 -28 -35 -47 -21 -14 -43 -26 -49 -26 -10 0 -30 49 -22
55 2 1 12 7 23 14 18 10 16 10 -9 5 -27 -6 -29 -5 -24 19 3 16 0 28 -8 31 -24
9 -15 26 12 26 18 0 25 -4 21 -14z m133 6 c0 -14 -11 -21 -26 -15 -21 8 -17
23 6 23 11 0 20 -4 20 -8z m70 -11 c0 -12 -29 -23 -41 -15 -5 3 -7 10 -4 15 8
12 45 12 45 0z m-40 -32 c0 -12 -39 -31 -50 -24 -14 9 -12 33 3 38 16 5 47 -3
47 -14z m60 -12 c0 -7 -18 -31 -40 -52 -34 -33 -42 -37 -50 -25 -17 27 -10 48
23 69 36 23 67 27 67 8z m79 4 c11 -7 10 -13 -4 -35 -10 -14 -21 -26 -25 -26
-15 0 -22 41 -10 55 14 17 20 18 39 6z m-571 -34 c19 -40 8 -44 -33 -13 -42
32 -45 48 -8 44 19 -2 32 -12 41 -31z m662 28 c0 -3 -19 -39 -42 -80 -40 -72
-43 -74 -55 -53 -7 13 -12 33 -13 45 0 32 57 93 86 93 13 0 24 -2 24 -5z
m-142 -49 c9 -21 6 -31 -29 -78 -22 -29 -44 -54 -49 -56 -5 -2 -13 14 -19 35
-10 36 -9 39 31 80 23 24 45 43 48 43 4 0 12 -11 18 -24z m-128 -41 c0 -6 -20
-31 -45 -55 l-44 -44 -15 35 c-13 30 -13 36 2 53 9 10 31 27 47 37 28 18 31
18 43 2 6 -9 12 -22 12 -28z m159 -36 c6 -18 11 -38 11 -46 0 -19 -71 -173
-80 -173 -4 0 -15 29 -24 65 l-16 65 42 60 c24 33 46 60 50 60 3 0 11 -14 17
-31z m-140 -30 c17 -50 14 -66 -26 -109 -41 -46 -51 -43 -72 19 -11 34 -10 37
31 78 23 24 45 43 49 43 4 0 12 -14 18 -31z m-9095 -847 c31 -74 56 -135 56
-138 0 -2 -9 -4 -19 -4 -13 0 -24 11 -32 35 -13 34 -14 35 -70 35 -57 0 -58 0
-69 -35 -8 -23 -18 -35 -30 -35 -17 0 -15 9 20 93 66 157 80 190 84 186 2 -2
29 -64 60 -137z m436 36 c0 93 2 103 18 100 15 -3 17 -19 20 -141 1 -75 -1
-137 -5 -137 -4 0 -52 44 -105 97 l-98 98 0 -98 c0 -80 -3 -97 -15 -97 -13 0
-15 22 -15 141 l0 142 100 -104 99 -104 1 103z m388 78 c91 -47 92 -174 3
-233 -26 -18 -48 -23 -97 -23 l-64 0 0 133 c0 74 3 137 8 141 11 13 116 0 150
-18z m399 -11 c29 -33 29 -74 2 -109 l-21 -27 31 -50 c37 -59 36 -59 12 -59
-12 0 -30 18 -50 50 -24 39 -37 50 -56 50 -23 0 -25 -3 -25 -50 0 -43 -3 -50
-20 -50 -19 0 -20 7 -20 141 l0 142 62 -6 c51 -5 67 -10 85 -32z m411 16 c47
-24 72 -67 72 -123 0 -172 -245 -188 -275 -18 -13 73 62 160 138 160 15 0 44
-9 65 -19z m292 -121 c0 -118 -2 -140 -15 -140 -13 0 -15 22 -15 140 0 118 2
140 15 140 13 0 15 -22 15 -140z m358 116 c91 -47 92 -174 3 -233 -26 -18 -48
-23 -97 -23 l-64 0 0 133 c0 74 3 137 8 141 11 13 116 0 150 -18z m651 -2 c87
-51 78 -201 -14 -240 -19 -8 -59 -14 -90 -14 l-55 0 0 141 0 142 64 -5 c35 -3
78 -14 95 -24z m421 6 c0 -18 -7 -20 -70 -20 l-70 0 0 -40 0 -40 65 0 c58 0
65 -2 65 -20 0 -18 -7 -20 -65 -20 l-65 0 0 -40 0 -40 75 0 c68 0 75 -2 75
-20 0 -19 -7 -20 -90 -20 l-90 0 0 140 0 140 85 0 c78 0 85 -2 85 -20z m244
-65 c18 -44 36 -89 40 -100 6 -16 16 1 48 83 32 83 43 102 60 102 12 0 18 -5
15 -12 -41 -105 -112 -268 -116 -268 -5 0 -89 193 -120 272 -2 5 7 8 19 6 17
-2 29 -20 54 -83z m516 65 c0 -18 -7 -20 -70 -20 l-70 0 0 -40 0 -40 65 0 c58
0 65 -2 65 -20 0 -18 -7 -20 -65 -20 l-65 0 0 -40 0 -40 75 0 c68 0 75 -2 75
-20 0 -19 -7 -20 -90 -20 l-90 0 0 140 0 140 85 0 c78 0 85 -2 85 -20z m230
-100 l0 -120 70 0 c63 0 70 -2 70 -20 0 -18 -7 -20 -85 -20 l-85 0 0 140 c0
118 2 140 15 140 13 0 15 -20 15 -120z m528 91 c43 -30 67 -96 53 -148 -18
-65 -71 -103 -147 -103 -40 0 -51 5 -84 38 -51 51 -59 98 -28 160 41 81 134
105 206 53z m389 -5 c32 -38 30 -80 -6 -117 -22 -21 -39 -29 -65 -29 l-36 0 0
-50 c0 -43 -3 -50 -20 -50 -19 0 -20 7 -20 141 l0 141 62 -4 c51 -4 65 -9 85
-32z m373 14 c0 -18 -7 -20 -70 -20 l-70 0 0 -40 0 -40 65 0 c58 0 65 -2 65
-20 0 -18 -7 -20 -65 -20 l-65 0 0 -40 0 -40 75 0 c68 0 75 -2 75 -20 0 -19
-7 -20 -95 -20 l-95 0 0 140 0 140 90 0 c83 0 90 -1 90 -20z m335 -10 c32 -30
35 -90 4 -121 l-20 -20 30 -50 c36 -58 37 -59 12 -59 -12 0 -31 19 -51 50 -24
37 -38 50 -56 50 -22 0 -24 -4 -24 -50 0 -43 -3 -50 -20 -50 -19 0 -20 7 -20
141 l0 141 60 -4 c45 -3 66 -10 85 -28z m-5824 -568 c23 -10 6 -52 -21 -52
-11 0 -20 -4 -20 -10 0 -5 11 -10 25 -10 14 0 25 -4 25 -10 0 -18 31 3 41 26
11 31 59 34 59 4 0 -15 7 -20 25 -20 20 0 25 -5 25 -25 0 -20 -5 -25 -26 -25
-24 0 -25 -2 -22 -47 3 -43 5 -48 26 -46 18 2 22 -2 22 -26 0 -24 -5 -29 -31
-35 -18 -3 -43 -1 -58 7 -23 11 -27 19 -31 77 l-5 65 -35 0 -35 0 -3 -72 -3
-73 -34 0 -35 0 0 75 c0 60 -3 75 -15 75 -19 0 -20 24 -1 39 7 6 16 25 20 41
8 41 61 61 107 42z m263 -7 c10 -26 -5 -45 -35 -45 -31 0 -45 19 -35 45 3 9
18 15 35 15 16 0 31 -6 35 -15z m670 0 c10 -26 -5 -45 -35 -45 -17 0 -32 6
-35 15 -10 26 4 45 35 45 16 0 31 -6 35 -15z m761 -15 c0 -20 -6 -26 -28 -28
-29 -4 -44 16 -33 44 4 10 15 14 33 12 22 -2 28 -8 28 -28z m280 0 c0 -20 -6
-26 -28 -28 -29 -4 -44 16 -33 44 4 10 15 14 33 12 22 -2 28 -8 28 -28z m1773
-112 l3 -138 -41 0 -40 0 0 133 c0 74 3 137 7 141 4 4 21 6 38 4 l30 -3 3
-137z m1432 2 l0 -140 -29 0 c-17 0 -32 4 -36 9 -3 6 -18 3 -35 -7 -28 -16
-30 -16 -57 4 -33 25 -48 69 -39 118 12 65 57 94 109 71 16 -7 18 -4 12 28 -9
46 -1 57 41 57 l34 0 0 -140z m515 110 c0 -21 -5 -26 -33 -28 -34 -3 -50 14
-38 44 4 10 16 14 38 12 28 -2 33 -7 33 -28z m235 -110 l0 -140 -29 0 c-17 0
-33 4 -36 10 -4 6 -16 4 -31 -6 -31 -21 -76 -5 -93 32 -39 86 22 200 89 164
18 -10 20 -8 20 28 0 47 4 52 47 52 l33 0 0 -140z m-6804 104 c-3 -9 -6 -31
-6 -50 0 -29 -3 -34 -24 -34 -27 0 -36 16 -36 66 0 32 2 34 36 34 29 0 35 -3
30 -16z m84 -11 c0 -52 -11 -73 -36 -73 -17 0 -24 6 -24 19 0 10 -3 33 -6 50
-6 30 -6 31 30 31 33 0 36 -3 36 -27z m228 18 c8 -5 11 -17 7 -33 -6 -24 -11
-26 -53 -25 -40 2 -48 -1 -61 -25 -12 -20 -13 -35 -5 -65 l9 -38 53 0 c53 1
53 1 50 -29 -2 -24 -9 -31 -36 -38 -50 -13 -109 7 -133 45 -16 26 -19 45 -16
96 3 57 7 67 35 92 27 24 41 29 85 29 28 0 58 -4 65 -9z m5246 -106 c20 -63
39 -121 42 -130 5 -12 -2 -15 -34 -15 -32 0 -42 4 -47 20 -5 16 -15 20 -47 20
-31 0 -41 -4 -45 -20 -4 -16 -14 -20 -44 -20 -22 0 -39 4 -39 8 0 10 70 234
77 245 2 4 26 7 53 7 l48 0 36 -115z m-3377 75 c3 -11 14 -20 24 -20 14 0 19
-7 19 -25 0 -18 -5 -25 -20 -25 -17 0 -20 -7 -20 -51 0 -50 1 -51 26 -45 23 6
25 4 22 -21 -4 -40 -58 -54 -96 -26 -23 17 -27 28 -30 82 -2 33 -7 61 -12 61
-16 0 -12 16 13 54 25 41 65 49 74 16z m523 0 c0 -15 7 -20 25 -20 20 0 25 -5
25 -25 0 -20 -5 -25 -26 -25 -24 0 -25 -2 -22 -47 3 -43 5 -48 26 -46 18 2 22
-2 22 -26 0 -24 -5 -30 -30 -35 -66 -13 -100 24 -100 110 0 24 -4 44 -10 44
-15 0 -12 28 4 37 7 4 18 18 25 31 15 29 61 31 61 2z m-1090 -41 c0 -10 -4
-19 -10 -19 -5 0 -10 -13 -10 -28 0 -36 -24 -59 -76 -71 l-39 -9 45 -1 c57 -1
90 -23 90 -60 0 -60 -98 -101 -170 -71 -40 17 -51 57 -22 80 14 12 18 20 10
28 -7 7 -6 17 2 32 9 16 9 25 1 33 -17 17 -13 72 7 90 21 18 50 23 120 19 43
-3 52 -7 52 -23z m2087 8 c2 -3 0 -14 -6 -26 -9 -16 -18 -19 -49 -15 l-37 5
40 -22 c47 -26 55 -35 55 -70 0 -37 -32 -62 -82 -63 -59 -1 -78 9 -78 38 0 25
2 25 45 19 55 -7 58 6 5 29 -27 11 -41 24 -46 42 -8 35 18 74 53 78 28 3 90
-6 100 -15z m431 -14 c7 -10 12 -48 12 -95 0 -76 -1 -78 -24 -78 -14 0 -27 4
-30 9 -4 5 -19 3 -35 -5 -54 -27 -101 1 -101 59 0 33 31 58 79 64 23 3 38 10
35 15 -4 6 -22 8 -40 5 -27 -5 -36 -2 -45 14 -13 26 -9 30 38 39 46 8 94 -4
111 -27z m907 15 c1 -1 -1 -13 -6 -25 -7 -19 -14 -21 -46 -17 l-38 5 30 -17
c49 -27 65 -46 65 -74 0 -48 -52 -75 -122 -63 -34 5 -38 9 -38 34 0 28 1 29
48 23 51 -6 48 2 -17 38 -54 30 -35 100 29 110 23 3 88 -6 95 -14z m158 11
c41 -11 41 -12 27 -39 -8 -15 -18 -18 -48 -14 l-37 5 45 -23 c47 -24 58 -46
46 -93 -8 -30 -63 -49 -116 -40 -36 6 -40 10 -40 36 0 30 0 30 45 23 25 -3 45
-4 45 0 0 3 -18 15 -40 26 -47 24 -60 58 -36 94 8 14 26 27 38 29 13 2 25 5
28 6 3 0 22 -4 43 -10z m610 -16 c14 -13 17 -33 17 -100 l0 -83 -35 0 -35 0 0
54 c0 67 -7 86 -31 86 -17 0 -19 -8 -19 -70 l0 -70 -40 0 -40 0 0 100 0 100
30 0 c17 0 30 -5 30 -10 0 -6 12 -4 28 5 30 16 68 12 95 -12z m432 -14 c0 -30
-4 -34 -30 -39 -29 -5 -30 -7 -33 -68 l-3 -62 -39 0 -40 0 0 100 0 100 29 0
c17 0 32 -4 36 -9 3 -6 17 -4 33 5 37 19 47 13 47 -27z m160 27 c69 -29 84
-125 29 -177 -38 -35 -104 -34 -141 4 -38 37 -40 113 -4 151 20 22 33 28 74
35 4 0 23 -6 42 -13z m-5983 -7 c3 -9 9 -9 25 0 34 18 63 14 63 -8 0 -28 -11
-52 -21 -45 -5 2 -18 0 -29 -6 -17 -9 -20 -21 -20 -70 l0 -60 -40 0 -40 0 0
100 0 100 29 0 c16 0 31 -5 33 -11z m274 -10 c14 -16 20 -40 23 -100 l3 -79
-30 0 c-17 0 -32 5 -34 10 -2 7 -15 5 -36 -5 -38 -19 -67 -13 -88 21 -32 48
14 104 86 104 11 0 20 5 20 11 0 8 -13 9 -39 5 -34 -5 -41 -3 -46 14 -10 32 3
40 64 40 46 0 62 -4 77 -21z m454 -79 l0 -100 -40 0 -40 0 0 100 0 100 40 0
40 0 0 -100z m100 90 c0 -7 7 -7 20 0 12 6 37 10 58 8 48 -4 62 -31 62 -125
l0 -73 -40 0 -40 0 0 69 c0 42 -5 73 -12 77 -20 13 -38 -28 -38 -88 l0 -58
-35 0 -35 0 0 100 0 100 30 0 c17 0 30 -5 30 -10z m570 -90 l0 -100 -40 0 -40
0 0 100 0 100 40 0 40 0 0 -100z m100 90 c0 -7 7 -7 20 0 12 6 37 10 58 8 48
-4 62 -31 62 -125 l0 -73 -40 0 -40 0 0 69 c0 42 -5 73 -12 77 -20 13 -38 -28
-38 -88 l0 -58 -35 0 -35 0 0 100 0 100 30 0 c17 0 30 -5 30 -10z m420 -59 c0
-72 10 -92 35 -71 10 9 15 33 15 77 l0 64 38 -3 37 -3 3 -97 3 -98 -30 0 c-16
0 -32 4 -35 9 -4 5 -19 3 -36 -6 -16 -8 -39 -12 -50 -8 -42 13 -50 33 -50 121
l0 84 35 0 35 0 0 -69z m240 -31 l0 -100 -35 0 -35 0 0 100 0 100 35 0 35 0 0
-100z m280 0 l0 -100 -35 0 -35 0 0 100 0 100 35 0 35 0 0 -100z m116 38 l18
-63 18 63 19 62 39 0 38 0 -37 -97 -38 -98 -38 0 -38 0 -38 98 -37 97 38 0 39
0 17 -62z m311 40 c12 -13 23 -39 25 -58 l3 -35 -64 -5 c-56 -4 -62 -7 -48
-19 12 -9 31 -12 58 -8 39 5 40 4 37 -21 -2 -20 -11 -28 -36 -34 -44 -12 -106
6 -126 37 -20 30 -21 87 -1 125 18 34 27 38 86 39 35 1 50 -4 66 -21z m620 0
c12 -13 23 -39 25 -58 l3 -35 -64 -5 c-56 -4 -62 -7 -48 -19 12 -9 31 -12 58
-8 39 5 40 4 37 -21 -2 -20 -11 -28 -36 -34 -44 -12 -106 6 -126 37 -20 30
-21 87 -1 125 18 34 27 38 86 39 35 1 50 -4 66 -21z m350 11 c8 -8 13 -8 17 0
10 15 79 14 94 -1 9 -9 15 -9 24 0 17 17 78 15 100 -5 15 -13 18 -31 18 -100
l0 -83 -35 0 -35 0 0 64 c0 40 -5 68 -13 75 -23 19 -37 -9 -37 -76 l0 -63 -35
0 -35 0 0 56 c0 67 -14 101 -36 83 -9 -8 -14 -32 -14 -75 l0 -64 -40 0 -40 0
0 100 0 100 28 0 c15 0 33 -5 39 -11z m558 5 c20 -8 45 -56 45 -89 0 -24 -2
-25 -61 -25 -44 0 -59 -3 -56 -12 2 -8 22 -13 51 -12 44 0 47 -1 44 -25 -2
-18 -11 -27 -33 -33 -109 -29 -190 87 -119 171 21 26 33 31 69 31 24 0 51 -3
60 -6z m1765 -94 l0 -100 -40 0 -40 0 0 100 0 100 40 0 40 0 0 -100z m-3166
-49 c3 -4 0 -28 -7 -52 -11 -37 -17 -45 -41 -47 l-29 -4 8 49 c4 26 9 51 12
56 6 10 51 9 57 -2z m-2229 -301 c0 -21 -5 -26 -31 -28 -21 -2 -33 2 -37 12
-12 29 4 47 37 44 26 -2 31 -7 31 -28z m1610 0 c0 -21 -5 -26 -31 -28 -33 -3
-49 15 -37 44 4 10 16 14 37 12 26 -2 31 -7 31 -28z m285 -15 c0 -44 0 -44 30
-39 74 15 100 -19 100 -132 l0 -64 -40 0 -40 0 0 69 c0 72 -10 92 -35 71 -10
-9 -15 -33 -15 -76 l0 -64 -35 0 -35 0 0 140 0 140 35 0 c35 0 35 0 35 -45z
m1485 15 c0 -20 -6 -26 -28 -28 -18 -2 -29 2 -33 12 -11 28 4 48 33 44 22 -2
28 -8 28 -28z m742 22 c18 -12 4 -52 -18 -52 -11 0 -19 -4 -19 -10 0 -5 9 -10
20 -10 15 0 20 -7 20 -26 0 -17 -6 -28 -20 -31 -18 -5 -20 -14 -20 -74 l0 -69
-40 0 -40 0 0 66 c0 52 -4 70 -17 80 -15 11 -16 16 -6 31 7 10 20 34 28 53 9
19 21 38 28 42 16 10 68 10 84 0z m818 -22 c0 -20 -6 -26 -29 -28 -35 -4 -50
9 -41 38 5 17 13 21 38 18 27 -2 32 -7 32 -28z m565 -110 l0 -140 -35 0 -35 0
0 140 0 140 35 0 35 0 0 -140z m-9415 102 c89 -21 169 -49 176 -63 63 -129 63
-131 46 -144 -10 -7 -26 -38 -37 -70 -11 -31 -29 -72 -41 -91 -26 -43 -128
-127 -145 -120 -8 3 -19 -3 -27 -14 -9 -14 -23 -18 -50 -16 -21 2 -39 0 -41
-3 -2 -3 -35 -5 -73 -5 -117 3 -215 70 -292 203 -54 91 -65 138 -51 207 11 53
14 56 58 76 26 11 76 24 112 30 36 6 83 13 105 17 60 10 203 6 260 -7z m5652
-22 c3 -11 14 -20 24 -20 14 0 19 -7 19 -25 0 -18 -5 -25 -20 -25 -17 0 -20
-7 -20 -51 0 -50 1 -51 26 -45 23 6 25 4 22 -21 -4 -40 -58 -54 -96 -26 -23
17 -27 28 -30 82 -2 33 -7 61 -12 61 -16 0 -12 16 13 54 25 41 65 49 74 16z
m2103 -36 c10 -10 16 -41 19 -99 l3 -85 -41 0 -41 0 0 70 c0 62 -2 70 -19 70
-24 0 -31 -19 -31 -86 l0 -54 -35 0 -35 0 0 100 0 100 30 0 c17 0 30 -4 30 -9
0 -6 12 -3 28 5 30 16 69 11 92 -12z m435 12 c41 -17 55 -42 55 -96 0 -52 -13
-76 -50 -95 -37 -19 -54 -19 -95 0 -36 18 -55 51 -55 96 0 51 24 84 75 101 30
9 33 9 70 -6z m236 2 c-1 -5 -1 -21 -1 -38 0 -26 -3 -30 -29 -30 -34 0 -41
-14 -41 -81 l0 -49 -35 0 -35 0 0 100 0 100 30 0 c21 0 30 -5 30 -16 0 -13 5
-12 27 6 25 20 55 24 54 8z m284 -11 c31 -26 44 -94 26 -139 -15 -40 -54 -62
-88 -50 l-28 9 3 -48 4 -49 -41 0 -41 0 0 145 0 145 29 0 c17 0 33 -5 36 -10
4 -7 14 -5 28 5 29 20 41 19 72 -8z m549 9 c23 -9 37 -24 45 -46 22 -65 18
-70 -55 -70 -60 0 -65 -2 -53 -16 10 -12 25 -15 57 -11 41 4 43 4 40 -21 -6
-50 -106 -55 -154 -7 -18 18 -24 35 -24 70 0 58 13 83 53 100 41 18 50 18 91
1z m-6329 -21 c17 -16 25 -35 25 -60 l0 -35 -61 0 c-44 0 -59 -3 -56 -12 3 -9
22 -13 56 -12 51 2 52 1 49 -24 -6 -51 -119 -51 -164 -1 -29 32 -26 110 5 143
34 36 111 37 146 1z m139 -2 l14 -28 13 28 c10 23 18 27 51 27 21 0 38 -3 38
-8 0 -4 -11 -24 -25 -44 -14 -20 -25 -41 -25 -46 0 -4 13 -29 30 -55 l30 -47
-44 0 c-37 0 -44 4 -55 27 -12 27 -13 27 -27 8 -8 -10 -14 -22 -14 -27 0 -4
-20 -8 -45 -8 l-46 0 31 44 c36 54 37 61 5 108 -14 20 -25 39 -25 42 0 4 18 6
40 6 33 0 42 -5 54 -27z m212 16 c4 -8 9 -8 17 0 19 19 72 13 93 -10 28 -31
27 -131 -2 -160 -22 -21 -57 -28 -85 -15 -13 6 -15 -1 -15 -41 l1 -48 -37 -3
-38 -3 0 145 0 146 29 0 c17 0 33 -5 37 -11z m333 -15 c12 -15 21 -41 21 -60
l0 -34 -61 0 c-44 0 -59 -3 -56 -12 2 -8 23 -13 56 -13 50 1 52 0 49 -24 -4
-32 -52 -46 -108 -31 -50 14 -70 42 -70 103 0 67 30 97 99 97 42 0 53 -4 70
-26z m119 10 c8 -14 10 -14 21 0 8 9 24 16 38 16 21 0 24 -4 21 -32 -2 -21 -9
-32 -21 -34 -43 -6 -47 -12 -47 -74 l0 -60 -35 0 -35 0 0 100 c0 99 0 100 25
100 13 0 28 -7 33 -16z m182 -84 l0 -100 -40 0 -40 0 0 100 0 100 40 0 40 0 0
-100z m205 75 c17 -16 25 -35 25 -60 l0 -35 -61 0 c-44 0 -59 -3 -56 -12 3 -9
22 -13 56 -12 51 2 52 1 49 -24 -6 -51 -119 -51 -164 -1 -29 32 -26 110 5 143
34 36 111 37 146 1z m121 14 c4 -8 9 -8 17 0 17 17 78 13 99 -6 15 -13 18 -31
18 -100 l0 -83 -35 0 -35 0 0 64 c0 40 -5 68 -13 75 -23 19 -37 -9 -37 -76 l0
-63 -40 0 -40 0 0 100 0 100 29 0 c17 0 33 -5 37 -11z m339 1 c3 -5 1 -19 -5
-31 -9 -16 -18 -20 -39 -16 -34 7 -51 -8 -51 -44 0 -38 22 -54 60 -41 29 11
30 10 30 -18 0 -36 -12 -43 -68 -43 -62 0 -92 34 -92 104 0 71 29 99 104 99
30 0 58 -4 61 -10z m180 4 c20 -8 45 -56 45 -89 0 -24 -2 -25 -61 -25 -44 0
-59 -3 -56 -12 2 -8 22 -13 51 -12 44 0 47 -1 44 -25 -2 -18 -11 -27 -33 -33
-109 -29 -190 87 -119 171 21 26 33 31 69 31 24 0 51 -3 60 -6z m221 -2 c7 -4
8 -15 3 -29 -7 -19 -14 -21 -46 -17 l-38 5 30 -17 c47 -26 65 -45 65 -68 0
-53 -51 -81 -124 -69 -32 5 -36 9 -36 34 0 28 1 29 48 23 51 -6 48 2 -17 38
-23 13 -31 24 -31 44 0 44 26 64 84 64 28 0 56 -4 62 -8z m206 -49 c7 -32 14
-49 16 -38 2 11 8 37 13 58 9 35 12 37 49 37 l39 0 14 -62 c9 -35 16 -52 16
-38 1 14 6 42 12 63 9 34 13 37 46 37 24 0 34 -4 31 -12 -3 -7 -16 -53 -28
-101 l-23 -88 -41 3 c-40 3 -41 3 -52 56 -7 30 -14 55 -16 57 -2 3 -10 -22
-16 -55 l-13 -60 -39 0 c-38 0 -40 2 -50 43 -6 23 -18 64 -26 91 -19 66 -19
66 20 66 34 0 35 -1 48 -57z m338 -43 l0 -100 -40 0 -40 0 0 100 0 100 40 0
40 0 0 -100z m702 83 c15 -13 18 -31 18 -100 0 -81 0 -83 -24 -83 -14 0 -27 4
-31 9 -3 6 -17 4 -33 -5 -36 -18 -45 -18 -76 7 -53 42 -24 106 53 116 23 3 41
10 41 16 0 6 -16 7 -40 4 -33 -4 -42 -2 -51 15 -15 28 3 38 70 38 37 0 60 -5
73 -17z m225 6 c8 -8 13 -8 17 0 4 6 23 11 41 11 40 0 60 -24 69 -80 12 -78
-40 -142 -98 -120 -26 9 -26 9 -26 -40 l0 -50 -35 0 -35 0 0 145 0 145 28 0
c15 0 33 -5 39 -11z m325 -6 c15 -13 18 -31 18 -100 0 -81 0 -83 -24 -83 -14
0 -27 4 -31 9 -3 6 -17 4 -33 -5 -36 -18 -45 -18 -76 7 -53 42 -24 106 53 116
23 3 41 10 41 16 0 6 -16 7 -40 4 -33 -4 -42 -2 -51 15 -15 28 3 38 70 38 37
0 60 -5 73 -17z m205 9 c7 -4 10 -17 7 -29 -5 -18 -11 -21 -42 -16 -42 7 -39
-1 10 -25 58 -29 52 -104 -10 -123 -56 -16 -106 -1 -110 35 -3 27 -3 27 42 21
50 -8 66 9 21 21 -27 7 -65 48 -65 70 0 30 39 54 88 54 26 0 52 -4 59 -8z
m198 -2 c3 -6 4 -19 0 -29 -5 -16 -12 -19 -40 -14 -45 7 -45 -3 -1 -21 101
-42 47 -150 -65 -131 -35 6 -39 10 -39 36 0 28 1 29 48 23 51 -6 48 2 -17 38
-24 13 -31 24 -31 47 0 45 23 61 85 61 30 0 57 -5 60 -10z m115 -90 l0 -100
-35 0 -35 0 0 100 0 100 35 0 35 0 0 -100z m201 87 c25 -19 39 -53 39 -94 0
-49 -21 -78 -65 -93 -72 -24 -135 23 -135 100 0 35 23 86 42 93 25 10 103 6
119 -6z m1359 -87 l0 -100 -40 0 -40 0 0 100 0 100 40 0 40 0 0 -100z m110 93
c0 -5 4 -15 9 -22 8 -12 13 -11 28 8 14 18 27 22 56 19 l38 -3 -30 -47 -30
-46 30 -47 c16 -25 29 -48 29 -50 0 -3 -18 -5 -40 -5 -32 0 -42 5 -53 26 l-14
26 -16 -26 c-14 -21 -25 -26 -57 -26 -22 0 -40 3 -40 6 0 3 14 25 30 49 l31
44 -24 38 c-13 21 -27 44 -31 51 -5 9 5 12 38 12 25 0 46 -3 46 -7z m588 -95
c3 -28 2 -28 -52 -28 -56 0 -56 0 -56 31 l0 30 53 -3 c48 -3 52 -5 55 -30z
m-9082 -129 c-63 -131 -108 -187 -152 -185 -24 1 -29 5 -30 28 -1 15 3 25 7
22 5 -3 9 1 9 8 0 8 22 31 49 51 56 43 106 102 142 165 46 83 29 24 -25 -89z
m145 0 c33 -12 59 -28 59 -35 0 -19 -10 -18 -72 6 -29 11 -61 20 -70 20 -10 0
-18 7 -18 15 0 21 32 19 101 -6z m-14 -40 c61 -21 63 -23 64 -58 l2 -36 6 35
c4 22 12 36 24 38 19 4 21 -10 10 -96 -4 -41 -9 -52 -22 -50 -9 2 -19 17 -22
33 l-7 30 -1 -27 c-1 -36 -22 -36 -127 0 l-80 28 27 62 c32 71 34 72 126 41z
m111 3 c2 -7 -3 -12 -12 -12 -9 0 -16 7 -16 16 0 17 22 14 28 -4z m-183 -148
c21 -8 57 -19 79 -23 30 -5 41 -11 40 -24 0 -9 -1 -39 -2 -67 -2 -62 -8 -63
-142 -17 l-96 32 8 45 c4 25 10 51 13 58 6 17 55 15 100 -4z m6832 -12 c18
-12 4 -52 -18 -52 -11 0 -19 -4 -19 -10 0 -5 9 -10 20 -10 15 0 20 -7 20 -26
0 -17 -6 -28 -20 -31 -18 -5 -20 -14 -20 -74 l0 -69 -40 0 -40 0 0 68 c0 56
-3 69 -20 80 -17 10 -20 10 -20 -3 0 -10 -10 -15 -30 -15 l-30 0 0 -65 0 -65
-40 0 -40 0 0 100 0 100 29 0 c16 0 31 -6 34 -12 4 -10 7 -10 18 0 16 15 69
16 69 1 0 -20 20 2 36 39 8 20 20 40 27 44 16 10 68 10 84 0z m883 -132 l0
-140 -30 0 c-16 0 -30 4 -30 9 0 5 -13 3 -30 -5 -58 -29 -102 11 -103 94 -1
80 41 124 98 102 24 -9 25 -8 25 35 0 45 0 45 35 45 l35 0 0 -140z m535 110
c0 -21 -5 -26 -33 -28 -22 -2 -34 2 -38 12 -12 30 4 47 38 44 28 -2 33 -7 33
-28z m671 -21 c-3 -17 -6 -40 -6 -51 0 -15 -6 -19 -27 -16 -26 3 -28 7 -31 51
l-3 47 37 0 c36 0 36 -1 30 -31z m84 -3 c0 -49 -9 -66 -35 -66 -18 0 -24 7
-29 38 -10 60 -9 62 29 62 33 0 35 -2 35 -34z m-8830 -41 c0 -64 -1 -65 -26
-65 -26 0 -27 1 -20 46 3 26 6 55 6 65 0 12 7 19 20 19 18 0 20 -7 20 -65z
m7180 35 c0 -15 7 -20 25 -20 21 0 25 -5 25 -30 0 -26 -4 -30 -26 -30 -23 0
-25 -3 -22 -42 3 -38 6 -43 26 -40 19 3 22 -1 22 -27 0 -26 -4 -31 -35 -37
-62 -11 -95 28 -95 112 0 14 -6 33 -12 45 -11 17 -10 22 3 32 9 7 21 22 28 35
15 29 61 31 61 2z m-7490 -19 c0 -10 -7 -21 -15 -24 -12 -5 -12 -2 -3 18 13
30 18 31 18 6z m7125 -6 c36 -14 55 -46 55 -91 0 -23 -3 -24 -61 -24 -44 0
-59 -3 -56 -12 3 -9 22 -13 56 -12 51 2 52 1 49 -24 -7 -58 -142 -52 -173 8
-31 59 -12 134 40 156 39 17 48 17 90 -1z m247 -1 c4 -3 3 -15 -1 -27 -6 -16
-19 -23 -47 -27 -37 -5 -39 -7 -39 -40 0 -35 0 -35 43 -34 42 1 43 0 40 -29
-4 -40 -43 -55 -100 -38 -31 10 -43 20 -55 49 -16 39 -12 94 9 119 29 36 112
50 150 27z m662 2 c23 -9 37 -24 45 -46 22 -65 18 -70 -55 -70 -60 0 -65 -2
-53 -16 10 -12 25 -15 57 -11 41 4 43 4 40 -21 -6 -50 -106 -55 -154 -7 -18
18 -24 35 -24 70 0 58 13 83 53 100 41 18 50 18 91 1z m208 4 c35 -10 37 -12
26 -36 -10 -21 -16 -24 -47 -18 l-36 5 40 -23 c98 -58 47 -156 -71 -134 -30 6
-34 11 -34 36 0 29 0 30 48 24 44 -5 46 -4 28 10 -11 9 -24 16 -30 16 -22 0
-46 35 -46 67 0 29 5 36 33 48 39 17 43 17 89 5z m344 0 c27 0 34 -4 34 -20 0
-11 -4 -20 -10 -20 -5 0 -10 -13 -10 -28 0 -36 -24 -59 -76 -71 l-39 -9 45 -1
c85 -2 119 -60 65 -111 -30 -28 -116 -38 -155 -18 -30 16 -38 53 -16 77 9 9
13 26 10 38 -3 11 -1 24 5 27 7 5 6 15 -5 31 -36 56 18 122 90 110 16 -3 44
-5 62 -5z m244 -16 c10 -10 16 -41 19 -99 l3 -85 -41 0 -41 0 0 70 c0 62 -2
70 -19 70 -24 0 -31 -19 -31 -86 l0 -54 -35 0 -35 0 0 100 0 100 30 0 c17 0
30 -4 30 -9 0 -6 12 -3 28 5 30 16 69 11 92 -12z m-2550 7 c0 -5 12 -5 28 1
62 24 102 -13 102 -92 0 -76 -42 -120 -95 -100 -25 9 -25 9 -25 -40 l0 -50
-35 0 -35 0 0 145 0 145 30 0 c17 0 30 -4 30 -9z m315 3 c20 -8 45 -56 45 -89
0 -24 -2 -25 -61 -25 -44 0 -59 -3 -56 -12 2 -8 22 -13 51 -12 44 0 47 -1 44
-25 -2 -18 -11 -27 -33 -33 -109 -29 -190 87 -119 171 21 26 33 31 69 31 24 0
51 -3 60 -6z m1795 -94 l0 -100 -40 0 -40 0 0 100 0 100 40 0 40 0 0 -100z
m-9469 51 c5 8 9 10 9 4 0 -5 -5 -17 -10 -25 -6 -10 -10 -11 -10 -2 0 6 -4 11
-9 10 -9 -3 -11 2 -11 25 0 6 5 4 11 -7 9 -15 13 -16 20 -5z m1062 -28 c-3
-21 -6 -39 -7 -39 -1 -1 -16 -5 -35 -9 l-33 -7 31 46 c18 25 36 46 41 46 5 0
6 -17 3 -37z m-1073 -42 c-1 -14 -2 -14 -14 1 -7 10 -16 15 -20 11 -4 -4 -4 0
0 10 5 14 9 15 20 6 8 -6 14 -19 14 -28z m-36 -34 c-3 -9 -11 -17 -16 -17 -6
0 -7 7 -4 16 3 9 6 21 6 27 0 8 3 8 10 1 6 -6 8 -18 4 -27z m10070 7 c9 -8 16
-19 16 -24 0 -13 -30 -40 -44 -40 -34 0 -48 52 -18 69 23 14 28 14 46 -5z
m-8974 -79 l0 -85 -27 6 c-65 14 -63 12 -63 74 0 54 2 60 28 73 57 31 62 26
62 -68z m-192 -4 c-34 -38 -65 -67 -67 -65 -4 3 6 14 77 87 69 70 63 57 -10
-22z m-888 -4 c0 -14 -4 -16 -17 -8 -38 22 -43 28 -37 44 5 15 8 15 30 -1 13
-9 24 -25 24 -35z m960 24 c-5 -11 -10 -34 -10 -51 0 -31 -15 -45 -44 -38 -12
2 -8 14 21 56 37 53 52 68 33 33z m-982 -74 c3 -25 2 -25 -31 -15 -33 10 -34
12 -25 40 10 27 12 28 32 15 11 -8 22 -26 24 -40z m982 -42 c0 -9 -9 -15 -22
-15 -13 0 -34 -3 -47 -7 -18 -4 -22 -3 -17 6 18 28 86 41 86 16z m17 -7 c-3
-8 -6 -5 -6 6 -1 11 2 17 5 13 3 -3 4 -12 1 -19z m105 6 c4 -3 8 -12 8 -20 0
-13 -8 -14 -42 -9 -52 9 -58 12 -58 32 0 13 8 14 42 9 22 -4 45 -9 50 -12z
m-1082 -29 c10 6 25 -99 15 -114 -3 -6 -1 -11 6 -11 7 0 10 -2 7 -5 -4 -4 -43
12 -77 32 -2 2 4 28 15 59 10 30 20 50 22 45 2 -6 7 -9 12 -6z m987 -42 c-3
-10 -5 -4 -5 12 0 17 2 24 5 18 2 -7 2 -21 0 -30z m96 20 c4 -2 7 -16 7 -30 0
-24 -2 -25 -37 -18 -40 7 -53 19 -53 48 0 15 6 17 38 11 20 -4 40 -9 45 -11z
m-10 -67 c21 -5 27 -12 27 -32 0 -22 -4 -25 -32 -22 -25 2 -34 10 -45 36 -13
31 -12 33 4 29 10 -3 30 -8 46 -11z m-1073 -58 c32 -24 22 -30 -26 -16 -49 15
-46 12 -38 31 6 17 24 13 64 -15z m1098 -19 c12 -5 22 -16 22 -25 0 -13 -8
-11 -47 12 -27 15 -50 29 -53 31 -6 6 47 -7 78 -18z m-1107 -24 c11 -4 15 -14
12 -25 -4 -15 -9 -17 -23 -10 -10 6 -30 10 -44 10 -26 0 -30 7 -20 33 5 15 25
13 75 -8z m63 -31 c3 -16 16 -55 31 -88 14 -32 24 -60 22 -62 -2 -2 -27 23
-55 56 l-52 59 17 40 c19 44 31 42 37 -5z m6779 -81 c53 -37 87 -102 87 -165
0 -122 -84 -208 -203 -208 -179 0 -271 203 -154 337 70 79 187 95 270 36z
m3055 21 c83 -34 125 -99 126 -191 0 -121 -84 -203 -208 -203 -179 1 -271 203
-153 337 59 67 155 91 235 57z m-10086 -135 c-3 -21 -7 -27 -13 -18 -4 7 -12
10 -16 5 -4 -4 1 -14 11 -22 24 -17 5 -18 -41 -1 -44 16 -42 28 9 48 57 23 55
24 50 -12z m5313 -59 l0 -65 -44 0 c-25 0 -46 5 -48 12 -3 8 8 10 36 6 34 -5
41 -3 41 11 0 11 -9 16 -28 16 -33 0 -52 16 -52 45 0 31 21 46 60 43 l35 -3 0
-65z m65 10 c0 -33 4 -60 10 -60 6 0 10 -4 10 -10 0 -5 -13 -10 -30 -10 -16 0
-30 5 -30 10 0 6 5 10 10 10 6 0 10 23 10 50 0 28 -4 50 -10 50 -5 0 -10 5
-10 10 0 6 9 10 20 10 18 0 20 -7 20 -60z m143 1 c9 -64 -1 -81 -48 -81 -44 0
-57 18 -49 71 9 69 10 71 51 67 38 -3 38 -3 46 -57z m122 -11 l0 -65 -44 0
c-25 0 -46 5 -48 12 -3 8 8 10 36 6 34 -5 41 -3 41 11 0 11 -9 16 -28 16 -33
0 -52 16 -52 45 0 31 21 46 60 43 l35 -3 0 -65z m115 60 c0 -5 -13 -10 -30
-10 -20 0 -30 -5 -30 -15 0 -9 9 -15 24 -15 31 0 48 -22 44 -57 -3 -26 -6 -28
-47 -28 -25 0 -46 5 -48 12 -3 8 8 10 37 6 40 -6 42 -5 38 18 -2 19 -10 25
-35 27 -30 3 -33 6 -33 38 0 33 1 34 40 34 22 0 40 -4 40 -10z m120 0 c0 -19
-60 -130 -70 -130 -14 0 -13 5 15 60 14 27 25 52 25 55 0 3 -16 5 -35 5 -19 0
-35 5 -35 10 0 6 23 10 50 10 28 0 50 -5 50 -10z m98 -2 c5 -7 9 -38 8 -68
l-1 -55 -44 0 c-25 0 -46 5 -48 12 -3 8 8 10 36 6 37 -5 41 -3 41 16 0 16 -6
21 -25 21 -31 0 -33 17 -2 22 12 2 22 10 22 18 0 11 -10 15 -38 14 -30 -1 -35
1 -26 12 14 17 63 18 77 2z m129 -4 c2 -7 -10 -11 -34 -10 -26 1 -38 -4 -40
-14 -3 -11 6 -15 34 -15 38 0 38 0 38 -40 l0 -40 -45 0 -45 0 -3 53 c-2 32 2
60 9 68 14 17 80 15 86 -2z m122 2 c7 -8 11 -37 9 -68 l-3 -53 -44 0 c-25 0
-46 5 -48 12 -3 8 8 10 36 6 35 -5 41 -3 41 13 0 15 -7 19 -37 19 -34 0 -38 3
-41 28 -2 16 -1 35 2 43 7 18 70 18 85 0z m119 2 c5 -7 9 -38 8 -68 l-1 -55
-44 0 c-25 0 -46 5 -48 12 -3 8 8 10 36 6 37 -5 41 -3 41 16 0 16 -6 21 -25
21 -31 0 -33 17 -2 22 12 2 22 10 22 18 0 11 -10 15 -38 14 -30 -1 -35 1 -26
12 14 17 63 18 77 2z m72 -48 c0 -33 4 -60 10 -60 6 0 10 -4 10 -10 0 -5 -13
-10 -30 -10 -16 0 -30 5 -30 10 0 6 5 10 10 10 6 0 10 23 10 50 0 28 -4 50
-10 50 -5 0 -10 5 -10 10 0 6 9 10 20 10 18 0 20 -7 20 -60z m137 43 c3 -8 -8
-10 -36 -6 -36 5 -41 3 -41 -14 0 -16 5 -19 28 -15 35 5 55 -17 50 -55 -3 -26
-6 -28 -48 -28 l-45 0 -3 54 c-4 76 0 83 50 79 23 -2 43 -8 45 -15z m963 -7
c0 -19 4 -23 20 -19 11 3 27 0 35 -7 17 -14 21 -90 5 -90 -5 0 -10 18 -10 41
0 36 -2 40 -22 37 -19 -2 -24 -10 -26 -40 -5 -66 -22 -41 -22 32 0 40 4 70 10
70 6 0 10 -11 10 -24z m228 -49 c2 -55 0 -67 -13 -67 -12 0 -15 14 -15 71 0
52 3 70 13 67 7 -3 13 -29 15 -71z m420 40 c3 -27 16 -35 27 -17 3 6 14 10 23
10 14 0 13 -3 -5 -22 l-22 -21 20 -29 c16 -22 17 -28 6 -28 -8 0 -22 10 -30
23 l-16 22 0 -22 c-1 -14 -7 -23 -16 -23 -12 0 -15 15 -15 71 0 52 3 70 13 67
6 -3 13 -17 15 -31z m160 21 c19 -19 14 -40 -20 -75 l-32 -33 32 0 c18 0 32
-4 32 -10 0 -5 -22 -10 -50 -10 -62 0 -64 12 -10 65 45 44 43 60 -8 50 -32 -6
-34 -5 -23 9 16 19 62 21 79 4z m122 7 c0 -18 -67 -135 -77 -135 -9 0 -3 20
17 60 l30 60 -35 0 c-19 0 -35 5 -35 10 0 6 23 10 50 10 28 0 50 -2 50 -5z
m169 -9 c7 -8 11 -36 9 -63 l-3 -48 -60 0 -60 0 0 40 c0 39 1 40 38 43 36 3
37 3 37 -32 0 -25 4 -36 15 -36 10 0 15 10 15 33 0 51 -10 59 -71 55 l-54 -3
0 -60 0 -60 73 0 c43 0 71 -4 69 -10 -5 -15 -136 -18 -153 -4 -18 14 -19 130
-2 147 17 17 133 16 147 -2z m511 -56 c0 -40 -4 -70 -10 -70 -6 0 -10 30 -10
70 0 40 4 70 10 70 6 0 10 -30 10 -70z m-1760 50 c0 -5 -4 -10 -10 -10 -5 0
-10 5 -10 10 0 6 5 10 10 10 6 0 10 -4 10 -10z m1718 -55 c2 -53 0 -65 -13
-65 -13 0 -15 12 -14 65 1 41 6 65 13 65 8 0 13 -24 14 -65z m-3928 35 c0 -13
7 -20 20 -20 11 0 20 -4 20 -10 0 -5 -9 -10 -20 -10 -13 0 -20 -7 -20 -20 0
-11 -4 -20 -10 -20 -5 0 -10 9 -10 20 0 13 -7 20 -20 20 -11 0 -20 5 -20 10 0
6 9 10 20 10 13 0 20 7 20 20 0 11 5 20 10 20 6 0 10 -9 10 -20z m2104 -38
c12 -41 22 -40 36 3 10 30 30 49 30 28 0 -22 -37 -93 -48 -93 -7 0 -22 21 -32
46 -23 54 -24 57 -8 52 7 -3 17 -19 22 -36z m106 -12 c0 -27 -4 -50 -10 -50
-5 0 -10 23 -10 50 0 28 5 50 10 50 6 0 10 -22 10 -50z m100 40 c0 -5 -13 -10
-30 -10 -16 0 -30 -4 -30 -10 0 -5 11 -10 24 -10 29 0 49 -22 40 -44 -7 -18
-74 -23 -74 -6 0 6 14 10 31 10 17 0 28 4 24 10 -3 6 -14 10 -24 10 -24 0 -43
23 -35 44 7 18 74 23 74 6z m218 -2 c7 -7 12 -29 12 -50 0 -38 0 -38 -40 -38
-28 0 -43 5 -47 16 -8 22 9 47 38 55 23 7 23 7 -3 8 -16 1 -28 6 -28 11 0 14
54 12 68 -2z m212 -48 c0 -31 -5 -61 -12 -68 -15 -15 -64 -16 -73 -2 -4 6 6
10 24 10 41 0 49 18 9 22 -29 3 -33 7 -36 36 -5 53 2 62 48 60 l40 -1 0 -57z
m108 28 c3 -25 0 -28 -27 -28 -17 0 -31 -4 -31 -10 0 -5 14 -10 30 -10 17 0
30 -4 30 -10 0 -14 -64 -12 -78 2 -16 16 -15 61 0 76 7 7 26 12 43 10 24 -2
31 -8 33 -30z m110 0 c3 -25 0 -28 -27 -28 -17 0 -31 -4 -31 -10 0 -5 14 -10
30 -10 17 0 30 -4 30 -10 0 -14 -64 -12 -78 2 -16 16 -15 61 0 76 7 7 26 12
43 10 24 -2 31 -8 33 -30z m622 -32 c0 -49 -4 -65 -16 -70 -25 -9 -64 -7 -64
4 0 6 11 10 24 10 38 0 41 18 4 22 -29 3 -33 7 -36 36 -4 43 12 62 54 62 l34
0 0 -64z m188 12 c2 -29 -1 -48 -7 -48 -6 0 -11 18 -11 41 0 36 -2 40 -22 37
-19 -2 -24 -10 -26 -40 -4 -51 -22 -48 -22 3 0 36 -2 40 -22 37 -19 -2 -24
-10 -26 -40 -5 -55 -22 -46 -22 11 l0 48 78 -1 77 -1 3 -47z m100 40 c7 -7 12
-29 12 -51 l0 -38 -42 3 c-36 2 -44 7 -46 26 -3 17 4 26 30 37 33 14 33 14 6
15 -16 0 -28 5 -28 10 0 14 54 12 68 -2z m249 -3 c3 -9 2 -19 -2 -23 -4 -4
-10 -1 -12 6 -3 6 -13 12 -24 12 -14 0 -19 -7 -19 -30 0 -27 3 -30 30 -30 17
0 30 -4 30 -10 0 -14 -64 -12 -78 2 -7 7 -12 24 -12 38 0 14 5 31 12 38 17 17
67 15 75 -3z m108 -35 l0 -45 -40 0 c-38 0 -40 2 -43 33 -4 44 13 64 52 60 30
-3 31 -5 31 -48z m183 37 c14 -11 17 -87 3 -87 -6 0 -11 17 -13 38 -2 29 -7
37 -23 37 -16 0 -21 -8 -23 -37 -2 -21 -7 -38 -12 -38 -5 0 -10 17 -12 38 -2
29 -7 37 -23 37 -16 0 -21 -8 -23 -37 -2 -25 -8 -38 -18 -38 -10 0 -14 13 -14
50 l0 50 73 -2 c39 0 78 -5 85 -11z m-1778 -78 c0 -5 -7 -9 -15 -9 -15 0 -20
12 -9 23 8 8 24 -1 24 -14z m1390 0 c0 -5 -7 -9 -15 -9 -15 0 -20 12 -9 23 8
8 24 -1 24 -14z"/>
<path d="M5880 4686 l24 -27 -44 7 c-25 4 -53 11 -62 15 -25 13 -81 11 -117
-4 -18 -8 -48 -35 -67 -62 -33 -46 -45 -54 -24 -15 9 17 7 17 -20 7 -17 -6
-30 -18 -30 -27 0 -8 -5 -22 -10 -30 -8 -11 -9 -7 -4 15 7 28 6 29 -10 16 -11
-10 -16 -25 -14 -41 4 -24 1 -27 -25 -28 -16 0 -52 -17 -80 -36 -29 -20 -56
-36 -60 -36 -4 0 -20 -8 -35 -18 -15 -11 -52 -33 -82 -51 l-55 -33 25 28 25
27 -26 -18 c-39 -29 -83 -93 -110 -160 -13 -33 -27 -62 -32 -63 -4 -2 -14 -17
-23 -34 -12 -22 -18 -27 -28 -19 -21 18 -37 -11 -43 -77 -6 -68 9 -109 82
-210 30 -42 45 -74 45 -94 0 -23 3 -28 13 -20 10 9 13 -8 15 -81 1 -51 11
-130 21 -177 11 -47 27 -119 37 -162 9 -42 14 -93 11 -115 -3 -21 -1 -47 3
-58 7 -16 9 -14 9 15 0 53 20 220 32 265 6 22 24 63 40 92 32 55 38 74 45 138
3 22 12 59 20 82 14 38 24 46 127 103 62 33 135 68 162 77 28 9 57 19 66 23
15 7 143 5 293 -5 41 -3 87 -14 112 -26 42 -20 280 -63 296 -53 20 12 6 25
-21 19 -18 -4 -32 -2 -36 6 -7 11 5 10 100 -4 11 -2 43 -11 72 -21 73 -24 112
-80 143 -206 6 -25 24 -70 40 -100 15 -30 33 -82 40 -115 6 -33 17 -85 25
-115 7 -30 19 -83 25 -118 22 -106 39 -88 21 22 -9 53 18 182 59 286 40 100
51 149 45 194 -6 36 -2 49 24 90 16 27 33 62 37 80 3 17 12 38 19 46 24 28 26
75 9 146 -27 108 -49 151 -116 220 -59 62 -106 92 -57 37 l24 -28 -27 24 c-15
13 -25 27 -23 31 7 11 -89 97 -129 117 -20 9 -36 21 -36 26 0 5 -9 7 -20 4
-11 -3 -18 -1 -14 4 3 5 -4 9 -15 9 -15 0 -21 6 -21 21 0 26 -15 55 -33 62 -9
3 -13 -2 -13 -15 2 -38 -23 -30 -71 23 -60 66 -127 109 -169 109 -17 0 -47 6
-66 14 -24 10 -70 14 -154 13 -65 0 -135 3 -154 7 l-35 8 25 -26z"/>
<path d="M6435 3800 c3 -5 11 -10 16 -10 6 0 7 5 4 10 -3 6 -11 10 -16 10 -6
0 -7 -4 -4 -10z"/>
<path d="M6312 3355 c-62 -13 -118 -28 -126 -34 -16 -13 -61 -130 -58 -148 2
-7 -2 -13 -8 -13 -14 0 -13 -43 3 -59 6 -8 7 -11 1 -8 -6 3 -11 0 -11 -8 0
-19 11 -19 27 1 8 8 23 20 34 25 13 6 11 2 -6 -11 -28 -21 -41 -60 -15 -43 6
4 66 10 132 13 118 5 120 5 133 32 8 17 18 25 27 21 21 -7 19 -18 -7 -37 l-23
-17 24 12 c13 6 45 13 70 14 25 2 48 4 50 4 2 1 -8 10 -22 21 -37 29 -139 53
-200 46 -36 -4 -44 -3 -27 3 48 17 146 12 195 -9 58 -25 67 -25 37 0 -38 32
-97 43 -192 35 -76 -6 -87 -5 -87 9 0 11 4 13 10 7 7 -7 14 -6 21 4 17 21 181
65 245 65 36 0 65 -6 79 -16 32 -22 34 -15 9 31 -51 90 -111 101 -315 60z
m-162 -165 c0 -5 -5 -10 -11 -10 -5 0 -7 5 -4 10 3 6 8 10 11 10 2 0 4 -4 4
-10z m130 -90 c0 -16 -7 -20 -30 -20 -36 0 -39 13 -7 28 32 15 37 14 37 -8z"/>
<path d="M5396 3317 c-37 -20 -85 -81 -74 -93 3 -2 17 0 32 6 59 22 191 5 279
-35 l52 -25 -72 0 c-91 0 -166 -16 -195 -41 l-23 -20 40 17 c50 20 188 30 235
16 28 -8 20 -9 -40 -5 -93 7 -175 -14 -210 -53 l-25 -27 38 7 c26 5 44 3 54
-6 24 -20 345 -19 338 1 -4 11 -3 11 9 2 24 -20 33 -5 34 55 0 49 -4 63 -35
105 -43 60 -69 75 -181 99 -120 27 -206 26 -256 -3z m147 -239 c8 -31 2 -34
-30 -13 -26 17 -26 19 -8 26 30 12 32 11 38 -13z m197 -10 c0 -4 -13 -8 -30
-8 -28 0 -40 17 -24 33 8 7 54 -13 54 -25z"/>
<path d="M6388 3053 c6 -2 18 -2 25 0 6 3 1 5 -13 5 -14 0 -19 -2 -12 -5z"/>
<path d="M6210 3035 c0 -7 99 -33 150 -39 34 -4 28 -1 -25 13 -38 9 -82 20
-97 24 -16 4 -28 5 -28 2z"/>
<path d="M5553 3023 c9 -2 23 -2 30 0 6 3 -1 5 -18 5 -16 0 -22 -2 -12 -5z"/>
<path d="M5695 3005 c-16 -8 -52 -21 -80 -29 -66 -19 -35 -20 39 -1 69 18 123
44 91 44 -11 0 -33 -6 -50 -14z"/>
<path d="M5201 2842 c-1 -41 27 -184 40 -197 12 -12 11 -8 -2 35 -6 19 -16 71
-24 115 -7 44 -13 65 -14 47z"/>
<path d="M5734 2765 c-9 -13 -14 -28 -12 -33 1 -5 13 6 25 24 12 19 18 34 13
34 -5 0 -17 -11 -26 -25z"/>
<path d="M6180 2788 c0 -4 9 -22 20 -40 12 -20 20 -26 20 -17 0 16 -39 72 -40
57z"/>
<path d="M6222 2690 c0 -14 2 -19 5 -12 2 6 2 18 0 25 -3 6 -5 1 -5 -13z"/>
<path d="M5721 2662 c-1 -18 54 -72 73 -72 25 0 19 8 -18 25 -18 9 -38 26 -44
38 -6 12 -11 16 -11 9z"/>
<path d="M6198 2635 c-10 -13 -31 -26 -48 -30 -30 -7 -52 -25 -30 -25 23 0 81
33 91 52 15 28 7 30 -13 3z"/>
<path d="M5266 2555 c3 -11 10 -35 14 -53 5 -19 11 -37 15 -40 12 -11 -6 61
-22 88 -9 16 -12 18 -7 5z"/>
<path d="M6958 2053 c7 -3 16 -2 19 1 4 3 -2 6 -13 5 -11 0 -14 -3 -6 -6z"/>
<path d="M7038 1973 c6 -2 18 -2 25 0 6 3 1 5 -13 5 -14 0 -19 -2 -12 -5z"/>
<path d="M5330 1951 c-8 -6 -37 -13 -64 -17 -55 -7 -138 -33 -182 -58 -39 -21
-28 -20 42 4 32 12 91 28 129 37 39 8 79 22 90 29 21 15 9 19 -15 5z"/>
<path d="M7083 1943 c9 -2 23 -2 30 0 6 3 -1 5 -18 5 -16 0 -22 -2 -12 -5z"/>
<path d="M7188 1903 c6 -2 18 -2 25 0 6 3 1 5 -13 5 -14 0 -19 -2 -12 -5z"/>
<path d="M7210 1807 c25 -26 52 -46 60 -46 11 1 10 3 -2 6 -10 2 -18 8 -18 13
0 5 -19 23 -42 41 l-43 33 45 -47z"/>
<path d="M7345 1830 c10 -11 20 -20 23 -20 3 0 -3 9 -13 20 -10 11 -20 20 -23
20 -3 0 3 -9 13 -20z"/>
<path d="M6937 1766 c-20 -58 -20 -56 -8 -56 5 0 13 9 16 21 l7 21 22 -21 c27
-26 49 -27 67 -3 13 15 12 16 -4 3 -16 -12 -21 -12 -45 6 -15 11 -29 33 -32
49 -6 28 -7 27 -23 -20z"/>
<path d="M7069 1773 c-13 -16 -12 -17 4 -4 16 13 21 21 13 21 -2 0 -10 -8 -17
-17z"/>
<path d="M7318 1773 c7 -3 16 -2 19 1 4 3 -2 6 -13 5 -11 0 -14 -3 -6 -6z"/>
<path d="M5213 1763 c9 -2 23 -2 30 0 6 3 -1 5 -18 5 -16 0 -22 -2 -12 -5z"/>
<path d="M5068 1753 c12 -2 32 -2 45 0 12 2 2 4 -23 4 -25 0 -35 -2 -22 -4z"/>
<path d="M7190 1750 c0 -5 5 -10 11 -10 5 0 7 5 4 10 -3 6 -8 10 -11 10 -2 0
-4 -4 -4 -10z"/>
<path d="M7109 1733 c-13 -16 -12 -17 4 -4 16 13 21 21 13 21 -2 0 -10 -8 -17
-17z"/>
<path d="M7290 1745 c0 -11 59 -34 65 -25 3 6 -3 10 -14 10 -11 0 -23 5 -26
10 -6 10 -25 14 -25 5z"/>
<path d="M7154 1724 c-18 -14 -18 -15 4 -4 12 6 22 13 22 15 0 8 -5 6 -26 -11z"/>
<path d="M7260 1720 c8 -5 20 -10 25 -10 6 0 3 5 -5 10 -8 5 -19 10 -25 10 -5
0 -3 -5 5 -10z"/>
<path d="M6784 1510 c0 -85 2 -120 3 -77 2 42 2 112 0 155 -1 42 -3 7 -3 -78z"/>
<path d="M4816 1593 c-10 -26 -19 -88 -21 -138 -2 -49 -2 -79 1 -65 3 14 15
33 27 43 l22 18 -23 -11 -24 -12 8 59 c3 32 13 78 20 103 18 60 10 63 -10 3z"/>
<path d="M7003 1603 c-16 -6 -17 -35 -1 -51 15 -15 48 3 48 27 0 15 -23 35
-33 30 -1 0 -8 -3 -14 -6z m27 -28 c0 -8 -4 -15 -10 -15 -5 0 -10 7 -10 15 0
8 5 15 10 15 6 0 10 -7 10 -15z"/>
<path d="M7064 1594 c3 -9 6 -22 6 -30 0 -27 18 -14 22 16 4 25 1 30 -15 30
-13 0 -17 -5 -13 -16z"/>
<path d="M7120 1595 c-17 -20 -5 -45 20 -45 11 0 23 7 26 15 6 15 -11 45 -26
45 -4 0 -13 -7 -20 -15z m35 -15 c0 -7 -6 -15 -12 -17 -8 -3 -13 4 -13 17 0
13 5 20 13 18 6 -3 12 -11 12 -18z"/>
<path d="M7180 1581 c0 -23 5 -31 18 -31 12 0 14 2 4 8 -7 5 -10 16 -7 24 4 9
2 19 -4 23 -7 4 -11 -5 -11 -24z"/>
<path d="M6827 1593 c-4 -3 -7 -15 -7 -25 0 -28 34 -19 38 10 3 21 -16 31 -31
15z"/>
<path d="M5005 1569 c-48 -10 50 -9 105 1 45 8 45 8 -15 7 -33 -1 -73 -5 -90
-8z"/>
<path d="M4930 1550 c0 -5 7 -7 15 -4 8 4 15 8 15 10 0 2 -7 4 -15 4 -8 0 -15
-4 -15 -10z"/>
<path d="M6070 1541 c0 -6 5 -13 10 -16 6 -3 10 1 10 9 0 9 -4 16 -10 16 -5 0
-10 -4 -10 -9z"/>
<path d="M5195 1505 c-38 -7 -110 -16 -160 -20 -109 -7 -123 -15 -29 -15 78 0
264 29 264 42 0 4 -1 7 -2 7 -2 -1 -34 -7 -73 -14z"/>
<path d="M7072 1465 c0 -16 2 -22 5 -12 2 9 2 23 0 30 -3 6 -5 -1 -5 -18z"/>
<path d="M4880 1465 l-35 -13 38 3 c39 2 54 9 40 18 -4 2 -24 -1 -43 -8z"/>
<path d="M6931 1471 c-17 -11 -7 -41 13 -41 22 0 30 20 15 36 -9 8 -19 10 -28
5z"/>
<path d="M6980 1461 c0 -11 4 -22 9 -25 4 -3 6 6 3 19 -5 30 -12 33 -12 6z"/>
<path d="M5236 1455 c-9 -26 -7 -32 5 -12 6 10 9 21 6 23 -2 3 -7 -2 -11 -11z"/>
<path d="M6291 1454 c0 -11 3 -14 6 -6 3 7 2 16 -1 19 -3 4 -6 -2 -5 -13z"/>
<path d="M7014 1459 c-11 -18 14 -35 29 -20 10 10 8 11 -7 5 -16 -6 -18 -4
-13 9 7 19 2 23 -9 6z"/>
<path d="M6233 1418 c-11 -13 -20 -31 -20 -40 0 -15 3 -15 29 -2 15 8 28 21
28 29 0 8 0 18 1 22 1 17 -19 12 -38 -9z m27 -8 c-6 -11 -15 -18 -21 -15 -5 4
-9 1 -9 -6 0 -7 -3 -9 -7 -6 -7 8 25 47 39 47 5 0 4 -9 -2 -20z"/>
<path d="M4971 1384 c0 -11 3 -14 6 -6 3 7 2 16 -1 19 -3 4 -6 -2 -5 -13z"/>
<path d="M4893 1350 c0 -25 2 -35 4 -22 2 12 2 32 0 45 -2 12 -4 2 -4 -23z"/>
<path d="M5196 1364 c-9 -23 -4 -24 17 -2 13 14 14 18 3 18 -8 0 -17 -7 -20
-16z"/>
<path d="M6200 1330 c-30 -16 -51 -29 -47 -30 10 0 107 49 107 55 0 7 1 7 -60
-25z"/>
<path d="M4800 1335 c0 -8 2 -15 4 -15 2 0 6 7 10 15 3 8 1 15 -4 15 -6 0 -10
-7 -10 -15z"/>
<path d="M5228 1313 c7 -3 16 -2 19 1 4 3 -2 6 -13 5 -11 0 -14 -3 -6 -6z"/>
<path d="M5022 1265 c0 -16 2 -22 5 -12 2 9 2 23 0 30 -3 6 -5 -1 -5 -18z"/>
<path d="M5041 1254 c0 -11 3 -14 6 -6 3 7 2 16 -1 19 -3 4 -6 -2 -5 -13z"/>
<path d="M5341 1253 c0 -7 -13 -13 -28 -14 -16 0 -44 -7 -63 -15 l-35 -14 33
5 c22 3 31 1 26 -6 -3 -6 4 -4 17 4 18 12 35 14 66 8 24 -5 40 -4 37 0 -3 5
-14 9 -24 9 -10 0 -21 8 -23 18 -3 9 -5 11 -6 5z"/>
<path d="M5178 1243 c7 -3 16 -2 19 1 4 3 -2 6 -13 5 -11 0 -14 -3 -6 -6z"/>
<path d="M5321 1194 c0 -11 3 -14 6 -6 3 7 2 16 -1 19 -3 4 -6 -2 -5 -13z"/>
<path d="M5345 1199 c-4 -6 -5 -12 -2 -15 2 -3 7 2 10 11 7 17 1 20 -8 4z"/>
<path d="M5168 1193 c7 -3 16 -2 19 1 4 3 -2 6 -13 5 -11 0 -14 -3 -6 -6z"/>
<path d="M6256 1175 c-9 -26 -7 -32 5 -12 6 10 9 21 6 23 -2 3 -7 -2 -11 -11z"/>
<path d="M5154 1148 l-19 -23 23 19 c12 11 22 21 22 23 0 8 -8 2 -26 -19z"/>
<path d="M5516 1091 c38 -42 78 -87 87 -100 9 -14 19 -22 22 -19 4 3 -36 49
-87 100 -62 63 -70 69 -22 19z"/>
<path d="M6367 1125 c-3 -11 -8 -36 -11 -55 -5 -30 -3 -29 9 10 8 25 14 49 12
55 -2 5 -6 1 -10 -10z"/>
<path d="M6226 1095 c-3 -9 -6 -22 -5 -28 0 -7 5 -1 10 12 5 13 8 26 5 28 -2
2 -6 -3 -10 -12z"/>
<path d="M6206 1035 c-3 -9 -6 -22 -5 -28 0 -7 5 -1 10 12 5 13 8 26 5 28 -2
2 -6 -3 -10 -12z"/>
<path d="M11382 4390 c-5 -14 -26 -63 -46 -108 -20 -46 -36 -86 -36 -88 0 -2
43 -4 95 -4 l94 0 -35 83 c-20 45 -42 96 -49 112 l-13 30 -10 -25z"/>
<path d="M15382 4307 c-23 -56 -42 -105 -42 -109 0 -9 180 -11 180 -3 0 5 -91
215 -94 215 0 0 -20 -46 -44 -103z"/>
<path d="M16040 4355 l0 -115 68 0 c136 0 192 39 192 133 0 29 -4 58 -8 65
-14 21 -72 32 -164 32 l-88 0 0 -115z"/>
<path d="M9557 3424 c-8 -16 -18 -39 -21 -51 -7 -21 -4 -23 34 -23 45 0 45 1
15 74 l-13 30 -15 -30z"/>
<path d="M10340 3390 l0 -100 46 0 c37 0 51 5 75 29 66 66 20 171 -75 171
l-46 0 0 -100z"/>
<path d="M10750 3440 c0 -50 0 -50 33 -50 40 0 57 15 57 50 0 35 -17 50 -57
50 -33 0 -33 0 -33 -50z"/>
<path d="M11172 3488 c-99 -26 -88 -178 14 -204 54 -14 124 46 124 106 0 21
-33 90 -42 90 -2 0 -17 4 -33 8 -17 5 -45 5 -63 0z"/>
<path d="M11800 3390 l0 -100 46 0 c37 0 51 5 75 29 66 66 20 171 -75 171
l-46 0 0 -100z"/>
<path d="M12440 3390 l0 -100 48 0 c59 0 88 19 103 69 9 32 8 44 -5 73 -20 41
-51 58 -106 58 l-40 0 0 -100z"/>
<path d="M14383 3485 c-41 -17 -67 -67 -59 -113 17 -107 160 -119 195 -17 12
36 12 45 -3 76 -26 54 -81 77 -133 54z"/>
<path d="M14790 3440 c0 -49 1 -50 29 -50 32 0 61 22 61 46 0 34 -20 54 -55
54 l-35 0 0 -50z"/>
<path d="M15500 3440 c0 -50 0 -50 33 -50 40 0 57 15 57 50 0 35 -17 50 -57
50 -33 0 -33 0 -33 -50z"/>
<path d="M14847 2794 c-12 -13 -7 -72 6 -77 24 -9 39 9 35 44 -3 32 -24 49
-41 33z"/>
<path d="M15590 2762 c0 -43 20 -61 40 -37 19 23 8 70 -17 73 -21 3 -23 -1
-23 -36z"/>
<path d="M14370 2830 c0 -8 -3 -25 -6 -37 -5 -19 -2 -23 15 -23 18 0 20 4 15
28 -8 32 -24 53 -24 32z"/>
<path d="M10400 2795 c0 -16 6 -25 15 -25 9 0 15 9 15 25 0 16 -6 25 -15 25
-9 0 -15 -9 -15 -25z"/>
<path d="M10377 2644 c-11 -12 3 -24 28 -24 32 0 56 10 49 21 -6 10 -67 12
-77 3z"/>
<path d="M12945 2737 c-13 -10 -15 -16 -6 -21 17 -11 41 0 41 19 0 19 -11 19
-35 2z"/>
<path d="M15244 2796 c-3 -8 -4 -29 -2 -48 2 -25 8 -33 23 -33 22 0 31 30 21
71 -7 26 -33 32 -42 10z"/>
<path d="M9513 2743 c-21 -8 -15 -33 7 -33 13 0 20 7 20 20 0 20 -5 23 -27 13z"/>
<path d="M12100 2800 c0 -5 12 -10 26 -10 14 0 23 4 19 10 -3 6 -15 10 -26 10
-10 0 -19 -4 -19 -10z"/>
<path d="M12720 2800 c0 -5 12 -10 26 -10 14 0 23 4 19 10 -3 6 -15 10 -26 10
-10 0 -19 -4 -19 -10z"/>
<path d="M13640 2800 c0 -5 12 -10 26 -10 14 0 23 4 19 10 -3 6 -15 10 -26 10
-10 0 -19 -4 -19 -10z"/>
<path d="M6030 2389 c-19 -5 -64 -8 -100 -8 -37 1 -88 -5 -120 -15 -30 -10
-72 -20 -93 -23 l-38 -5 38 -35 c87 -78 243 -121 348 -95 55 14 164 60 197 83
14 11 38 19 53 19 43 0 21 15 -57 39 -40 13 -92 29 -116 37 -48 16 -61 16
-112 3z m-18 -95 c81 4 148 3 148 -1 -1 -28 -137 -78 -186 -68 -10 2 -36 7
-56 10 -37 6 -98 47 -98 66 0 5 10 4 22 -2 16 -8 64 -10 170 -5z"/>
<path d="M5805 2160 c9 -17 19 -30 24 -30 4 0 25 -12 46 -26 21 -14 46 -23 57
-21 10 3 15 1 12 -4 -7 -13 109 -9 151 3 28 9 113 93 104 103 -3 2 -25 -1 -49
-7 -61 -15 -298 -15 -333 0 l-27 12 15 -30z"/>
<path d="M14307 2303 c-4 -3 -7 -24 -7 -45 0 -41 24 -63 41 -37 24 38 -6 111
-34 82z"/>
<path d="M14800 2260 c0 -33 3 -40 20 -40 17 0 20 7 20 40 0 33 -3 40 -20 40
-17 0 -20 -7 -20 -40z"/>
<path d="M15370 2300 c0 -5 9 -10 20 -10 11 0 20 5 20 10 0 6 -9 10 -20 10
-11 0 -20 -4 -20 -10z"/>
<path d="M9015 2300 c-4 -6 5 -10 19 -10 14 0 26 5 26 10 0 6 -9 10 -19 10
-11 0 -23 -4 -26 -10z"/>
<path d="M9477 2304 c-4 -4 -7 -25 -7 -46 0 -32 3 -38 21 -38 18 0 20 5 17 42
-3 39 -16 57 -31 42z"/>
<path d="M9695 2300 c-4 -6 5 -10 19 -10 14 0 26 5 26 10 0 6 -9 10 -19 10
-11 0 -23 -4 -26 -10z"/>
<path d="M10205 2300 c-4 -6 5 -10 19 -10 14 0 26 5 26 10 0 6 -9 10 -19 10
-11 0 -23 -4 -26 -10z"/>
<path d="M10860 2300 c0 -5 12 -10 26 -10 14 0 23 4 19 10 -3 6 -15 10 -26 10
-10 0 -19 -4 -19 -10z"/>
<path d="M12323 2243 c-7 -2 -13 -11 -13 -20 0 -20 34 -12 38 10 3 17 -3 20
-25 10z"/>
<path d="M12641 2297 c-23 -23 -3 -91 24 -81 20 8 20 80 1 87 -7 3 -19 0 -25
-6z"/>
<path d="M12873 2243 c-7 -2 -13 -11 -13 -20 0 -20 34 -12 38 10 3 17 -3 20
-25 10z"/>
<path d="M13592 2298 c-22 -22 -12 -88 14 -88 22 0 37 50 25 77 -12 26 -21 29
-39 11z"/>
<path d="M14307 1793 c-11 -10 -8 -58 4 -70 21 -21 39 -3 39 38 0 31 -4 39
-18 39 -10 0 -22 -3 -25 -7z"/>
<path d="M13635 1800 c-4 -6 5 -10 20 -10 15 0 24 4 20 10 -3 6 -12 10 -20 10
-8 0 -17 -4 -20 -10z"/>
<path d="M14540 1800 c0 -5 9 -10 20 -10 11 0 20 5 20 10 0 6 -9 10 -20 10
-11 0 -20 -4 -20 -10z"/>
<path d="M15067 1807 c-3 -8 -1 -20 4 -28 11 -19 34 3 26 25 -8 20 -23 21 -30
3z"/>
<path d="M15045 1640 c-3 -6 0 -13 9 -16 22 -8 59 -1 64 14 5 15 -64 17 -73 2z"/>
<path d="M12872 1798 c-28 -28 -4 -101 25 -77 7 7 13 24 13 39 0 34 -21 55
-38 38z"/>
<path d="M13090 1800 c0 -5 12 -10 26 -10 14 0 23 4 19 10 -3 6 -15 10 -26 10
-10 0 -19 -4 -19 -10z"/>
<path d="M5431 1424 c0 -11 3 -14 6 -6 3 7 2 16 -1 19 -3 4 -6 -2 -5 -13z"/>
<path d="M12087 1122 c-30 -33 -20 -60 42 -122 74 -74 130 -91 148 -44 8 23
-25 46 -57 41 -32 -7 -91 50 -84 80 6 22 -11 63 -25 63 -4 0 -15 -8 -24 -18z"/>
<path d="M15225 1086 c43 -37 46 -36 100 9 l30 25 -85 0 -85 0 40 -34z"/>
<path d="M15170 1021 l0 -71 100 0 100 0 0 71 c0 77 2 77 -62 25 l-38 -29 -37
29 c-65 52 -63 52 -63 -25z"/>
<path d="M10500 1054 c0 -22 4 -25 28 -22 19 2 28 9 30 26 3 19 -1 22 -27 22
-27 0 -31 -4 -31 -26z"/>
<path d="M10710 1060 c0 -15 7 -20 25 -20 18 0 25 5 25 20 0 15 -7 20 -25 20
-18 0 -25 -5 -25 -20z"/>
<path d="M10705 1010 c-11 -17 5 -30 36 -30 22 0 29 5 29 20 0 15 -7 20 -29
20 -17 0 -33 -4 -36 -10z"/>
<path d="M10830 1054 c0 -22 4 -25 28 -22 19 2 28 9 30 26 3 19 -1 22 -27 22
-27 0 -31 -4 -31 -26z"/>
<path d="M11297 1023 c-4 -3 -7 -15 -7 -25 0 -13 8 -18 30 -18 25 0 30 4 30
25 0 20 -5 25 -23 25 -13 0 -27 -3 -30 -7z"/>
<path d="M11420 1055 c0 -23 4 -26 28 -23 19 2 27 9 27 23 0 14 -8 21 -27 23
-24 3 -28 0 -28 -23z"/>
<path d="M11747 1024 c-4 -4 -7 -16 -7 -26 0 -13 8 -18 31 -18 26 0 30 3 27
23 -3 22 -36 36 -51 21z"/>
<path d="M13787 1034 c-16 -16 -7 -44 14 -44 15 0 20 5 17 22 -3 22 -19 33
-31 22z"/>
<path d="M12890 990 c0 -5 9 -10 20 -10 11 0 20 5 20 10 0 6 -9 10 -20 10 -11
0 -20 -4 -20 -10z"/>
<path d="M13090 1010 c0 -27 3 -31 23 -28 16 2 22 10 22 28 0 18 -6 26 -22 28
-20 3 -23 -1 -23 -28z"/>
<path d="M13210 1030 c0 -5 9 -10 20 -10 11 0 20 5 20 10 0 6 -9 10 -20 10
-11 0 -20 -4 -20 -10z"/>
<path d="M13320 1030 c0 -5 9 -10 20 -10 11 0 20 5 20 10 0 6 -9 10 -20 10
-11 0 -20 -4 -20 -10z"/>
<path d="M13930 1010 c0 -27 3 -31 23 -28 16 2 22 10 22 28 0 18 -6 26 -22 28
-20 3 -23 -1 -23 -28z"/>
<path d="M14230 990 c0 -5 9 -10 19 -10 11 0 23 5 26 10 4 6 -5 10 -19 10 -14
0 -26 -4 -26 -10z"/>
<path d="M14580 1010 c0 -25 4 -30 25 -30 21 0 25 5 25 30 0 25 -4 30 -25 30
-21 0 -25 -5 -25 -30z"/>
<path d="M19947 5944 l48 -56 3 33 c2 17 1 43 -3 57 -5 21 -8 23 -16 11 -8
-11 -12 -11 -16 -1 -2 6 -18 12 -34 12 l-30 0 48 -56z"/>
<path d="M19913 5280 c-29 -17 -53 -33 -53 -36 0 -5 88 43 105 58 17 15 0 8
-52 -22z"/>
<path d="M19955 5085 c-25 -12 -26 -14 -5 -9 28 7 60 23 45 23 -5 0 -23 -6
-40 -14z"/>
<path d="M19890 5060 c-8 -5 -10 -10 -5 -10 6 0 17 5 25 10 8 5 11 10 5 10 -5
0 -17 -5 -25 -10z"/>
<path d="M19840 5040 c-8 -5 -10 -10 -5 -10 6 0 17 5 25 10 8 5 11 10 5 10 -5
0 -17 -5 -25 -10z"/>
<path d="M19770 5010 c-19 -11 -30 -19 -25 -19 6 0 26 8 45 19 19 11 31 19 25
19 -5 0 -26 -8 -45 -19z"/>
<path d="M19971 4921 c-12 -16 -40 -37 -64 -45 -23 -9 -30 -14 -14 -11 34 7
34 -2 -4 -43 -33 -37 -67 -53 -147 -72 -29 -7 -51 -14 -49 -17 3 -2 30 2 61
10 31 9 56 12 56 8 0 -15 -56 -60 -92 -76 -21 -8 -38 -22 -38 -29 0 -18 -90
-62 -145 -72 -32 -6 -36 -9 -20 -15 17 -6 13 -10 -25 -28 -25 -11 -76 -26
-112 -33 -37 -7 -65 -15 -63 -18 2 -3 -13 -5 -33 -3 -29 2 -32 1 -17 -6 19 -9
19 -9 -5 -19 -61 -26 11 -8 133 32 165 54 370 147 505 229 82 50 102 66 102
85 0 19 -4 22 -20 17 -11 -3 -20 -2 -20 3 0 5 9 21 20 35 21 27 28 63 9 51 -7
-4 -7 1 1 16 18 34 5 35 -19 1z m1 -58 c-16 -28 -71 -77 -79 -70 -4 4 13 27
37 52 44 45 60 52 42 18z m-2 -72 c0 -13 -60 -55 -67 -47 -9 8 37 56 54 56 7
0 13 -4 13 -9z m-114 -57 c-45 -39 -82 -48 -50 -13 24 27 76 60 84 53 3 -3
-13 -21 -34 -40z m-91 -73 c-3 -6 -19 -18 -36 -26 -40 -21 -38 0 3 25 33 20
45 20 33 1z"/>
<path d="M19725 4905 c-25 -12 -26 -14 -5 -9 28 7 60 23 45 23 -5 0 -23 -6
-40 -14z"/>
<path d="M19630 4870 c-8 -5 -10 -10 -5 -10 6 0 17 5 25 10 8 5 11 10 5 10 -5
0 -17 -5 -25 -10z"/>
<path d="M19808 4843 c7 -3 16 -2 19 1 4 3 -2 6 -13 5 -11 0 -14 -3 -6 -6z"/>
<path d="M19738 4823 c7 -3 16 -2 19 1 4 3 -2 6 -13 5 -11 0 -14 -3 -6 -6z"/>
<path d="M19630 4795 c-19 -7 -28 -13 -20 -13 8 0 31 6 50 13 19 7 28 13 20
13 -8 0 -31 -6 -50 -13z"/>
<path d="M19462 4743 c-24 -8 -41 -17 -39 -19 2 -2 28 5 58 15 30 11 47 20 39
19 -8 0 -34 -6 -58 -15z"/>
<path d="M19658 4723 c7 -3 16 -2 19 1 4 3 -2 6 -13 5 -11 0 -14 -3 -6 -6z"/>
<path d="M19618 4713 c7 -3 16 -2 19 1 4 3 -2 6 -13 5 -11 0 -14 -3 -6 -6z"/>
<path d="M19578 4703 c7 -3 16 -2 19 1 4 3 -2 6 -13 5 -11 0 -14 -3 -6 -6z"/>
<path d="M19538 4693 c7 -3 16 -2 19 1 4 3 -2 6 -13 5 -11 0 -14 -3 -6 -6z"/>
<path d="M19275 4675 c-25 -12 -26 -14 -5 -9 28 7 60 23 45 23 -5 0 -23 -6
-40 -14z"/>
<path d="M19498 4683 c7 -3 16 -2 19 1 4 3 -2 6 -13 5 -11 0 -14 -3 -6 -6z"/>
<path d="M19458 4673 c7 -3 16 -2 19 1 4 3 -2 6 -13 5 -11 0 -14 -3 -6 -6z"/>
<path d="M19418 4663 c7 -3 16 -2 19 1 4 3 -2 6 -13 5 -11 0 -14 -3 -6 -6z"/>
<path d="M19378 4653 c7 -3 16 -2 19 1 4 3 -2 6 -13 5 -11 0 -14 -3 -6 -6z"/>
<path d="M19620 4650 c-20 -6 -21 -8 -5 -8 11 0 29 3 40 8 25 11 -1 11 -35 0z"/>
<path d="M19338 4643 c7 -3 16 -2 19 1 4 3 -2 6 -13 5 -11 0 -14 -3 -6 -6z"/>
<path d="M19530 4630 c-20 -6 -21 -8 -5 -8 11 0 31 4 45 8 20 6 21 8 5 8 -11
0 -31 -4 -45 -8z"/>
<path d="M19468 4613 c6 -2 18 -2 25 0 6 3 1 5 -13 5 -14 0 -19 -2 -12 -5z"/>
<path d="M19418 4603 c6 -2 18 -2 25 0 6 3 1 5 -13 5 -14 0 -19 -2 -12 -5z"/>
<path d="M19368 4593 c6 -2 18 -2 25 0 6 3 1 5 -13 5 -14 0 -19 -2 -12 -5z"/>
<path d="M19318 4583 c6 -2 18 -2 25 0 6 3 1 5 -13 5 -14 0 -19 -2 -12 -5z"/>
<path d="M19268 4573 c6 -2 18 -2 25 0 6 3 1 5 -13 5 -14 0 -19 -2 -12 -5z"/>
<path d="M19458 4553 c6 -2 18 -2 25 0 6 3 1 5 -13 5 -14 0 -19 -2 -12 -5z"/>
<path d="M19403 4543 c9 -2 23 -2 30 0 6 3 -1 5 -18 5 -16 0 -22 -2 -12 -5z"/>
<path d="M19348 4533 c6 -2 18 -2 25 0 6 3 1 5 -13 5 -14 0 -19 -2 -12 -5z"/>
<path d="M19283 4523 c9 -2 23 -2 30 0 6 3 -1 5 -18 5 -16 0 -22 -2 -12 -5z"/>
<path d="M19213 4513 c9 -2 23 -2 30 0 6 3 -1 5 -18 5 -16 0 -22 -2 -12 -5z"/>
<path d="M19193 4463 c9 -2 25 -2 35 0 9 3 1 5 -18 5 -19 0 -27 -2 -17 -5z"/>
<path d="M19198 4433 c6 -2 18 -2 25 0 6 3 1 5 -13 5 -14 0 -19 -2 -12 -5z"/>
<path d="M19143 4423 c9 -2 23 -2 30 0 6 3 -1 5 -18 5 -16 0 -22 -2 -12 -5z"/>
<path d="M19951 2490 c-14 -76 -50 -196 -93 -305 -18 -44 -30 -61 -48 -66 -16
-5 -19 -7 -7 -8 9 -1 17 -5 17 -11 0 -9 -17 -15 -70 -23 -17 -3 -12 -5 13 -6
25 -1 37 -5 35 -13 -6 -18 -27 -26 -98 -36 l-65 -10 68 5 c57 5 67 3 67 -10 0
-10 -14 -20 -37 -25 -32 -8 -410 -84 -493 -99 l-25 -5 25 21 c40 33 123 60
264 85 72 13 122 25 111 25 -21 1 -186 -26 -217 -35 -10 -3 -18 -1 -18 5 0 15
113 49 235 70 94 17 103 20 60 21 -38 1 -45 4 -30 10 39 17 -9 10 -75 -10
-209 -65 -460 -183 -625 -293 -143 -95 -190 -134 -277 -228 -43 -46 -96 -102
-118 -125 -28 -27 -43 -52 -47 -77 -4 -28 -13 -42 -35 -53 -37 -19 -54 -54
-39 -82 18 -33 14 -40 -34 -61 -25 -11 -45 -25 -45 -31 0 -6 18 -30 40 -54
l40 -43 -59 -13 c-32 -7 -65 -16 -72 -21 -17 -11 -4 -20 86 -61 33 -14 61 -31
63 -37 4 -11 -43 -26 -138 -43 l-65 -11 85 -19 c89 -20 224 -63 301 -96 44
-19 47 -23 53 -69 14 -97 38 -183 48 -177 6 4 8 -1 4 -13 -8 -26 51 -198 120
-343 53 -114 54 -115 91 -118 36 -3 37 -3 20 15 -19 22 -42 109 -90 348 -51
251 -50 245 -33 245 18 0 24 -19 107 -355 34 -137 64 -252 66 -254 14 -18 2
40 -63 294 -68 266 -78 324 -54 285 27 -43 190 -529 190 -566 0 -8 4 -14 9
-14 12 0 -1 46 -94 328 -40 122 -70 222 -66 222 17 0 188 -380 231 -515 7 -22
15 -35 17 -29 5 15 -90 257 -151 388 -25 55 -45 104 -44 108 5 14 118 -176
205 -347 45 -88 83 -157 83 -152 0 15 -89 196 -159 321 -39 70 -70 130 -68
132 8 8 187 -249 267 -384 23 -40 45 -70 48 -68 7 7 -64 126 -165 276 l-83
125 82 -86 c46 -48 121 -139 168 -202 46 -64 86 -114 88 -112 7 7 -97 150
-178 247 -43 51 -76 95 -74 97 10 11 203 -182 317 -318 15 -18 30 -32 32 -29
6 6 -137 168 -222 251 -38 37 -129 118 -203 180 -142 119 -215 203 -276 320
-37 71 -84 198 -84 228 0 11 36 39 105 80 231 139 476 352 647 562 156 193
283 300 422 356 l56 23 0 45 c0 25 -4 42 -9 38 -17 -10 -24 18 -8 30 10 7 17
18 17 26 0 10 -3 10 -12 1 -14 -14 -58 -16 -58 -3 0 6 16 36 35 68 19 32 35
65 35 73 0 8 -16 -14 -35 -50 -40 -73 -59 -95 -94 -105 -20 -6 -23 -4 -18 11
4 11 24 71 46 134 22 63 46 138 54 165 l14 50 15 -65 c22 -88 21 -45 0 60
l-18 85 -13 -75z m-61 -380 c0 -6 -7 -13 -15 -16 -8 -4 -15 -14 -15 -24 0 -10
-9 -22 -21 -25 -28 -9 -38 4 -15 20 10 8 15 19 11 24 -3 6 4 15 17 20 31 13
38 13 38 1z m70 -1 c0 -6 -9 -13 -19 -16 -11 -3 -21 -13 -24 -24 -5 -20 -33
-36 -44 -25 -3 3 1 14 9 23 8 10 18 26 21 36 7 19 57 24 57 6z m18 -41 c-3 -7
-15 -15 -28 -16 -21 -3 -22 -2 -11 12 16 19 44 21 39 4z m-48 -43 c-7 -8 -17
-15 -22 -15 -6 0 -5 7 2 15 7 8 17 15 22 15 6 0 5 -7 -2 -15z m55 5 c-3 -5
-11 -10 -16 -10 -6 0 -7 5 -4 10 3 6 11 10 16 10 6 0 7 -4 4 -10z m-163 -15
c0 -14 -29 -31 -38 -22 -9 8 16 39 28 35 5 -2 10 -8 10 -13z m58 6 c0 -10 -30
-24 -37 -17 -3 3 -2 9 2 15 8 13 35 15 35 2z m10 -31 c0 -5 -4 -10 -10 -10 -5
0 -10 5 -10 10 0 6 5 10 10 10 6 0 10 -4 10 -10z m-50 -9 c0 -6 -4 -13 -10
-16 -5 -3 -10 1 -10 9 0 9 5 16 10 16 6 0 10 -4 10 -9z m-55 -21 c-20 -22 -31
-20 -22 5 4 8 14 15 23 15 16 0 16 -2 -1 -20z m-45 -4 c0 -8 -15 -19 -32 -25
-85 -27 -601 -151 -607 -146 -3 4 10 19 29 35 42 34 118 56 365 104 99 19 189
37 200 39 37 8 45 7 45 -7z m15 -36 c-3 -5 -11 -10 -16 -10 -6 0 -7 5 -4 10 3
6 11 10 16 10 6 0 7 -4 4 -10z m-45 -10 c0 -16 -73 -45 -285 -115 -218 -72
-411 -128 -426 -123 -5 2 4 19 20 39 35 42 59 50 431 145 281 71 260 67 260
54z m-500 -10 c0 -11 -60 -44 -67 -36 -3 3 10 14 28 25 39 24 39 24 39 11z
m480 -36 c0 -12 -314 -155 -465 -212 -321 -120 -349 -125 -294 -53 l34 44 225
68 c124 37 281 88 350 112 126 45 150 52 150 41z m-570 -33 c0 -11 -79 -71
-94 -71 -14 0 24 40 59 61 35 22 35 22 35 10z m525 -20 c-31 -29 -214 -134
-365 -210 -159 -79 -447 -198 -456 -188 -2 2 8 27 24 56 l27 52 160 53 c191
63 352 127 495 195 104 49 133 60 115 42z m-625 -26 c-20 -24 -70 -58 -77 -51
-8 8 56 66 74 66 13 0 13 -3 3 -15z m-110 -49 c0 -2 -8 -10 -17 -17 -16 -13
-17 -12 -4 4 13 16 21 21 21 13z m100 -9 c0 -16 -68 -83 -76 -74 -7 7 55 87
68 87 4 0 8 -6 8 -13z m549 -3 c-23 -27 -198 -148 -334 -230 -128 -77 -410
-214 -441 -214 -17 0 -14 21 14 80 15 32 27 38 119 71 157 57 367 153 509 234
134 76 156 86 133 59z m-609 -12 c0 -15 -62 -82 -76 -82 -22 0 -17 16 20 54
31 34 56 46 56 28z m-80 -31 c0 -16 -51 -71 -66 -71 -22 0 -17 13 17 48 31 32
49 40 49 23z m648 -23 c-7 -13 -13 -27 -13 -33 -1 -5 -7 -9 -14 -7 -7 1 -34
-17 -60 -41 -122 -115 -385 -293 -563 -383 -117 -59 -124 -58 -112 17 8 46 7
46 109 88 165 70 382 188 519 283 77 53 142 98 144 98 1 0 -3 -10 -10 -22z
m-747 -46 c-13 -25 -41 -37 -41 -17 0 14 40 48 48 41 2 -3 -1 -13 -7 -24z
m144 -9 c-25 -43 -44 -67 -49 -62 -7 6 45 89 56 89 5 0 2 -12 -7 -27z m-35 4
c0 -17 -48 -87 -60 -87 -13 0 -12 3 2 37 21 50 58 82 58 50z m-60 -17 c0 -23
-41 -90 -55 -90 -18 0 -19 9 -5 47 15 39 60 71 60 43z m616 -55 c-106 -123
-296 -283 -494 -415 -123 -82 -168 -107 -177 -98 -2 2 -5 26 -7 53 l-3 50 140
73 c166 87 354 211 485 321 52 44 97 78 99 75 2 -2 -17 -28 -43 -59z m-691 3
c-8 -36 -29 -58 -57 -58 -15 0 -16 4 -7 27 24 64 76 88 64 31z m-75 -26 c0
-25 -20 -49 -47 -57 -30 -8 -29 0 3 42 28 37 44 42 44 15z m143 -55 c-19 -51
-37 -64 -27 -19 7 30 33 76 40 69 2 -2 -4 -25 -13 -50z m-34 -4 c-6 -21 -13
-45 -16 -53 -3 -8 -5 -21 -4 -29 5 -26 -10 -101 -20 -101 -12 0 -12 87 1 95 6
4 5 13 -3 25 -11 19 -12 19 -19 0 -17 -47 -54 -6 -46 51 2 18 10 25 31 27 22
3 27 -1 28 -20 1 -18 3 -17 10 10 7 21 16 32 28 32 17 0 18 -4 10 -37z m-117
-43 c4 -45 -5 -60 -38 -60 -35 0 -44 57 -14 82 34 28 47 22 52 -22z m-78 -32
c7 -37 1 -45 -42 -54 -27 -6 -32 -4 -32 13 0 25 36 73 54 73 8 0 16 -14 20
-32z m136 -74 c0 -49 -2 -55 -15 -44 -17 14 -30 73 -20 89 3 6 13 11 21 11 10
0 14 -14 14 -56z m-44 -10 c5 -34 3 -48 -7 -55 -21 -13 -30 -7 -46 34 -18 45
-12 67 21 67 22 0 26 -6 32 -46z m-70 -9 c20 -49 18 -62 -15 -73 -27 -9 -29
-8 -49 32 -21 43 -19 58 8 69 31 11 41 6 56 -28z m-81 -35 c20 -45 17 -52 -33
-68 -33 -11 -34 -11 -49 25 -15 36 -14 38 12 60 37 32 49 29 70 -17z m205 -27
c0 -10 -4 -24 -9 -31 -6 -11 -9 -10 -13 5 -3 10 -3 24 -1 31 7 18 23 15 23 -5z
m-32 -38 c13 -41 9 -71 -8 -60 -16 10 -41 77 -35 93 9 23 29 7 43 -33z m-45
-22 c21 -60 21 -63 -3 -63 -11 0 -30 16 -45 37 -28 42 -31 59 -12 66 32 13 44
5 60 -40z m-74 -9 c28 -36 36 -65 20 -75 -27 -17 -47 -8 -84 37 -30 37 -35 48
-24 55 27 17 67 10 88 -17z m-70 -51 c18 -21 55 -61 83 -90 50 -53 55 -73 15
-73 -24 0 -127 65 -127 79 0 5 12 14 28 19 23 9 20 10 -19 5 -41 -5 -49 -2
-83 27 -44 39 -43 59 4 75 42 15 57 8 99 -42z m208 -35 c-3 -7 -5 -2 -5 12 0
14 2 19 5 13 2 -7 2 -19 0 -25z m-27 -8 c0 -34 -7 -38 -26 -12 -19 25 -17 42
6 42 16 0 20 -7 20 -30z m-35 -23 c28 -48 31 -67 13 -67 -14 0 -88 70 -88 82
0 7 23 20 47 27 1 1 14 -19 28 -42z m56 -40 c-8 -8 -11 -3 -11 19 1 25 2 27
11 11 8 -14 8 -22 0 -30z m-196 -24 l59 -47 -39 -17 c-43 -19 -41 -20 -157 36
-32 15 -58 31 -58 35 0 7 94 36 125 39 6 1 37 -20 70 -46z m228 -13 c3 -11 2
-20 -3 -20 -4 0 -10 9 -13 20 -3 11 -2 20 3 20 4 0 10 -9 13 -20z m-29 -16 c7
-19 -2 -37 -15 -29 -12 8 -12 45 0 45 5 0 12 -7 15 -16z m-46 -37 c4 -32 -4
-34 -38 -7 -21 17 -23 21 -10 30 24 16 45 7 48 -23z m82 -24 c0 -7 -4 -13 -9
-13 -10 0 -21 36 -13 45 7 7 22 -15 22 -32z m-115 -4 c25 -22 35 -39 35 -60
l0 -28 -80 46 c-76 45 -79 48 -58 60 37 20 65 15 103 -18z m75 1 c14 -26 3
-45 -16 -29 -16 13 -19 49 -4 49 5 0 14 -9 20 -20z m-119 -57 c56 -32 79 -51
83 -69 4 -15 5 -29 2 -31 -2 -3 -40 9 -83 25 -43 17 -118 42 -167 56 -49 14
-91 28 -94 30 -2 3 13 9 34 15 22 5 55 14 74 19 45 13 59 8 151 -45z m189 16
c0 -6 -4 -7 -10 -4 -5 3 -10 11 -10 16 0 6 5 7 10 4 6 -3 10 -11 10 -16z m-30
-15 c0 -8 -4 -14 -10 -14 -5 0 -10 9 -10 21 0 11 5 17 10 14 6 -3 10 -13 10
-21z m-40 -14 c6 -11 17 -20 25 -20 15 0 31 -37 20 -48 -4 -4 -13 2 -22 13 -8
11 -19 19 -25 17 -14 -4 -28 17 -28 41 0 23 17 22 30 -3z m74 -16 c9 -24 7
-28 -9 -14 -17 14 -20 30 -6 30 5 0 12 -7 15 -16z m-71 -54 c3 -13 11 -18 20
-14 10 3 18 -2 22 -16 9 -29 -3 -39 -20 -17 -7 10 -19 16 -26 15 -9 -2 -15 8
-17 25 -4 31 13 37 21 7z m85 -14 c3 -12 -1 -17 -10 -14 -7 3 -15 13 -16 22
-3 12 1 17 10 14 7 -3 15 -13 16 -22z m40 -34 c6 -18 -15 -14 -22 4 -4 10 -1
14 6 12 6 -2 14 -10 16 -16z m-28 -28 c0 -8 -6 -11 -15 -8 -8 4 -15 15 -15 26
0 17 3 18 15 8 8 -7 15 -19 15 -26z m-97 12 c3 -8 9 -43 12 -78 3 -35 8 -74
11 -88 4 -16 2 -21 -4 -15 -8 8 -42 162 -42 188 0 13 18 8 23 -7z m44 -18 c6
-7 16 -57 23 -111 7 -54 15 -96 17 -93 3 3 0 44 -7 91 -7 47 -9 89 -6 92 17
17 36 -34 60 -162 15 -77 38 -193 52 -258 14 -65 23 -121 21 -124 -3 -2 -17
15 -31 39 -22 38 -41 104 -75 268 -5 25 -9 36 -10 25 0 -11 5 -54 13 -95 8
-41 13 -76 11 -78 -20 -20 -95 300 -95 404 0 17 14 18 27 2z m93 -13 c0 -8 -4
-15 -9 -15 -5 0 -11 7 -15 15 -3 9 0 15 9 15 8 0 15 -7 15 -15z m35 -25 c3 -5
1 -10 -4 -10 -6 0 -11 5 -11 10 0 6 2 10 4 10 3 0 8 -4 11 -10z m38 -569 c19
-33 22 -45 7 -36 -14 9 -42 65 -32 65 4 0 15 -13 25 -29z"/>
<path d="M19733 2103 c9 -2 23 -2 30 0 6 3 -1 5 -18 5 -16 0 -22 -2 -12 -5z"/>
<path d="M19678 2093 c6 -2 18 -2 25 0 6 3 1 5 -13 5 -14 0 -19 -2 -12 -5z"/>
</g>
</svg>
